<mxfile host="app.diagrams.net" agent="Mozilla/5.0 (Windows NT 10.0; Win64; x64) AppleWebKit/537.36 (KHTML, like Gecko) Chrome/131.0.0.0 Safari/537.36" version="26.0.6">
  <diagram name="Page-1" id="PEG4fmZPOcqcN3tmb9fP">
    <mxGraphModel dx="5178" dy="771" grid="1" gridSize="10" guides="1" tooltips="1" connect="1" arrows="1" fold="1" page="1" pageScale="1" pageWidth="3300" pageHeight="4681" math="0" shadow="0">
      <root>
        <mxCell id="0" />
        <mxCell id="1" parent="0" />
        <mxCell id="-QC0LfeOqHy5VNt_hiCN-1" value="offres" style="shape=table;startSize=37;container=1;collapsible=1;childLayout=tableLayout;fixedRows=1;rowLines=0;fontStyle=1;align=center;resizeLast=1;html=1;fillColor=#ffe6cc;strokeColor=#d79b00;rounded=0;swimlaneLine=1;shadow=0;" parent="1" vertex="1">
          <mxGeometry x="-2180" y="560" width="216" height="517" as="geometry" />
        </mxCell>
        <mxCell id="-QC0LfeOqHy5VNt_hiCN-2" value="" style="shape=tableRow;horizontal=0;startSize=0;swimlaneHead=0;swimlaneBody=0;fillColor=none;collapsible=0;dropTarget=0;points=[[0,0.5],[1,0.5]];portConstraint=eastwest;top=0;left=0;right=0;bottom=1;rounded=0;" parent="-QC0LfeOqHy5VNt_hiCN-1" vertex="1">
          <mxGeometry y="37" width="216" height="30" as="geometry" />
        </mxCell>
        <mxCell id="-QC0LfeOqHy5VNt_hiCN-3" value="PK" style="shape=partialRectangle;connectable=0;fillColor=none;top=0;left=0;bottom=0;right=0;fontStyle=1;overflow=hidden;whiteSpace=wrap;html=1;rounded=0;" parent="-QC0LfeOqHy5VNt_hiCN-2" vertex="1">
          <mxGeometry width="30" height="30" as="geometry">
            <mxRectangle width="30" height="30" as="alternateBounds" />
          </mxGeometry>
        </mxCell>
        <mxCell id="-QC0LfeOqHy5VNt_hiCN-4" value="id_offre" style="shape=partialRectangle;connectable=0;fillColor=none;top=0;left=0;bottom=0;right=0;align=left;spacingLeft=6;fontStyle=5;overflow=hidden;whiteSpace=wrap;html=1;rounded=0;" parent="-QC0LfeOqHy5VNt_hiCN-2" vertex="1">
          <mxGeometry x="30" width="186" height="30" as="geometry">
            <mxRectangle width="186" height="30" as="alternateBounds" />
          </mxGeometry>
        </mxCell>
        <mxCell id="-QC0LfeOqHy5VNt_hiCN-5" value="" style="shape=tableRow;horizontal=0;startSize=0;swimlaneHead=0;swimlaneBody=0;fillColor=none;collapsible=0;dropTarget=0;points=[[0,0.5],[1,0.5]];portConstraint=eastwest;top=0;left=0;right=0;bottom=0;rounded=0;" parent="-QC0LfeOqHy5VNt_hiCN-1" vertex="1">
          <mxGeometry y="67" width="216" height="30" as="geometry" />
        </mxCell>
        <mxCell id="-QC0LfeOqHy5VNt_hiCN-6" value="" style="shape=partialRectangle;connectable=0;fillColor=none;top=0;left=0;bottom=0;right=0;editable=1;overflow=hidden;whiteSpace=wrap;html=1;rounded=0;" parent="-QC0LfeOqHy5VNt_hiCN-5" vertex="1">
          <mxGeometry width="30" height="30" as="geometry">
            <mxRectangle width="30" height="30" as="alternateBounds" />
          </mxGeometry>
        </mxCell>
        <mxCell id="-QC0LfeOqHy5VNt_hiCN-7" value="intitule" style="shape=partialRectangle;connectable=0;fillColor=none;top=0;left=0;bottom=0;right=0;align=left;spacingLeft=6;overflow=hidden;whiteSpace=wrap;html=1;rounded=0;" parent="-QC0LfeOqHy5VNt_hiCN-5" vertex="1">
          <mxGeometry x="30" width="186" height="30" as="geometry">
            <mxRectangle width="186" height="30" as="alternateBounds" />
          </mxGeometry>
        </mxCell>
        <mxCell id="-QC0LfeOqHy5VNt_hiCN-8" value="" style="shape=tableRow;horizontal=0;startSize=0;swimlaneHead=0;swimlaneBody=0;fillColor=none;collapsible=0;dropTarget=0;points=[[0,0.5],[1,0.5]];portConstraint=eastwest;top=0;left=0;right=0;bottom=0;rounded=0;" parent="-QC0LfeOqHy5VNt_hiCN-1" vertex="1">
          <mxGeometry y="97" width="216" height="30" as="geometry" />
        </mxCell>
        <mxCell id="-QC0LfeOqHy5VNt_hiCN-9" value="" style="shape=partialRectangle;connectable=0;fillColor=none;top=0;left=0;bottom=0;right=0;editable=1;overflow=hidden;whiteSpace=wrap;html=1;rounded=0;" parent="-QC0LfeOqHy5VNt_hiCN-8" vertex="1">
          <mxGeometry width="30" height="30" as="geometry">
            <mxRectangle width="30" height="30" as="alternateBounds" />
          </mxGeometry>
        </mxCell>
        <mxCell id="-QC0LfeOqHy5VNt_hiCN-10" value="description" style="shape=partialRectangle;connectable=0;fillColor=none;top=0;left=0;bottom=0;right=0;align=left;spacingLeft=6;overflow=hidden;whiteSpace=wrap;html=1;rounded=0;" parent="-QC0LfeOqHy5VNt_hiCN-8" vertex="1">
          <mxGeometry x="30" width="186" height="30" as="geometry">
            <mxRectangle width="186" height="30" as="alternateBounds" />
          </mxGeometry>
        </mxCell>
        <mxCell id="C7LOxqXwbHzqQDy3l2-N-214" value="" style="shape=tableRow;horizontal=0;startSize=0;swimlaneHead=0;swimlaneBody=0;fillColor=none;collapsible=0;dropTarget=0;points=[[0,0.5],[1,0.5]];portConstraint=eastwest;top=0;left=0;right=0;bottom=0;rounded=0;" vertex="1" parent="-QC0LfeOqHy5VNt_hiCN-1">
          <mxGeometry y="127" width="216" height="30" as="geometry" />
        </mxCell>
        <mxCell id="C7LOxqXwbHzqQDy3l2-N-215" value="" style="shape=partialRectangle;connectable=0;fillColor=none;top=0;left=0;bottom=0;right=0;editable=1;overflow=hidden;whiteSpace=wrap;html=1;rounded=0;" vertex="1" parent="C7LOxqXwbHzqQDy3l2-N-214">
          <mxGeometry width="30" height="30" as="geometry">
            <mxRectangle width="30" height="30" as="alternateBounds" />
          </mxGeometry>
        </mxCell>
        <mxCell id="C7LOxqXwbHzqQDy3l2-N-216" value="date_creation" style="shape=partialRectangle;connectable=0;fillColor=none;top=0;left=0;bottom=0;right=0;align=left;spacingLeft=6;overflow=hidden;whiteSpace=wrap;html=1;rounded=0;" vertex="1" parent="C7LOxqXwbHzqQDy3l2-N-214">
          <mxGeometry x="30" width="186" height="30" as="geometry">
            <mxRectangle width="186" height="30" as="alternateBounds" />
          </mxGeometry>
        </mxCell>
        <mxCell id="C7LOxqXwbHzqQDy3l2-N-217" value="" style="shape=tableRow;horizontal=0;startSize=0;swimlaneHead=0;swimlaneBody=0;fillColor=none;collapsible=0;dropTarget=0;points=[[0,0.5],[1,0.5]];portConstraint=eastwest;top=0;left=0;right=0;bottom=0;rounded=0;" vertex="1" parent="-QC0LfeOqHy5VNt_hiCN-1">
          <mxGeometry y="157" width="216" height="30" as="geometry" />
        </mxCell>
        <mxCell id="C7LOxqXwbHzqQDy3l2-N-218" value="" style="shape=partialRectangle;connectable=0;fillColor=none;top=0;left=0;bottom=0;right=0;editable=1;overflow=hidden;whiteSpace=wrap;html=1;rounded=0;" vertex="1" parent="C7LOxqXwbHzqQDy3l2-N-217">
          <mxGeometry width="30" height="30" as="geometry">
            <mxRectangle width="30" height="30" as="alternateBounds" />
          </mxGeometry>
        </mxCell>
        <mxCell id="C7LOxqXwbHzqQDy3l2-N-219" value="date_actualisation" style="shape=partialRectangle;connectable=0;fillColor=none;top=0;left=0;bottom=0;right=0;align=left;spacingLeft=6;overflow=hidden;whiteSpace=wrap;html=1;rounded=0;" vertex="1" parent="C7LOxqXwbHzqQDy3l2-N-217">
          <mxGeometry x="30" width="186" height="30" as="geometry">
            <mxRectangle width="186" height="30" as="alternateBounds" />
          </mxGeometry>
        </mxCell>
        <mxCell id="-QC0LfeOqHy5VNt_hiCN-11" value="" style="shape=tableRow;horizontal=0;startSize=0;swimlaneHead=0;swimlaneBody=0;fillColor=none;collapsible=0;dropTarget=0;points=[[0,0.5],[1,0.5]];portConstraint=eastwest;top=0;left=0;right=0;bottom=0;rounded=0;" parent="-QC0LfeOqHy5VNt_hiCN-1" vertex="1">
          <mxGeometry y="187" width="216" height="30" as="geometry" />
        </mxCell>
        <mxCell id="-QC0LfeOqHy5VNt_hiCN-12" value="" style="shape=partialRectangle;connectable=0;fillColor=none;top=0;left=0;bottom=0;right=0;editable=1;overflow=hidden;whiteSpace=wrap;html=1;rounded=0;" parent="-QC0LfeOqHy5VNt_hiCN-11" vertex="1">
          <mxGeometry width="30" height="30" as="geometry">
            <mxRectangle width="30" height="30" as="alternateBounds" />
          </mxGeometry>
        </mxCell>
        <mxCell id="-QC0LfeOqHy5VNt_hiCN-13" value="nombre_postes" style="shape=partialRectangle;connectable=0;fillColor=none;top=0;left=0;bottom=0;right=0;align=left;spacingLeft=6;overflow=hidden;whiteSpace=wrap;html=1;rounded=0;" parent="-QC0LfeOqHy5VNt_hiCN-11" vertex="1">
          <mxGeometry x="30" width="186" height="30" as="geometry">
            <mxRectangle width="186" height="30" as="alternateBounds" />
          </mxGeometry>
        </mxCell>
        <mxCell id="-QC0LfeOqHy5VNt_hiCN-14" value="" style="shape=tableRow;horizontal=0;startSize=0;swimlaneHead=0;swimlaneBody=0;fillColor=none;collapsible=0;dropTarget=0;points=[[0,0.5],[1,0.5]];portConstraint=eastwest;top=0;left=0;right=0;bottom=0;rounded=0;" parent="-QC0LfeOqHy5VNt_hiCN-1" vertex="1">
          <mxGeometry y="217" width="216" height="30" as="geometry" />
        </mxCell>
        <mxCell id="-QC0LfeOqHy5VNt_hiCN-15" value="" style="shape=partialRectangle;connectable=0;fillColor=none;top=0;left=0;bottom=0;right=0;editable=1;overflow=hidden;whiteSpace=wrap;html=1;rounded=0;" parent="-QC0LfeOqHy5VNt_hiCN-14" vertex="1">
          <mxGeometry width="30" height="30" as="geometry">
            <mxRectangle width="30" height="30" as="alternateBounds" />
          </mxGeometry>
        </mxCell>
        <mxCell id="-QC0LfeOqHy5VNt_hiCN-16" value="accessible_TH" style="shape=partialRectangle;connectable=0;fillColor=none;top=0;left=0;bottom=0;right=0;align=left;spacingLeft=6;overflow=hidden;whiteSpace=wrap;html=1;rounded=0;" parent="-QC0LfeOqHy5VNt_hiCN-14" vertex="1">
          <mxGeometry x="30" width="186" height="30" as="geometry">
            <mxRectangle width="186" height="30" as="alternateBounds" />
          </mxGeometry>
        </mxCell>
        <mxCell id="-QC0LfeOqHy5VNt_hiCN-20" value="" style="shape=tableRow;horizontal=0;startSize=0;swimlaneHead=0;swimlaneBody=0;fillColor=none;collapsible=0;dropTarget=0;points=[[0,0.5],[1,0.5]];portConstraint=eastwest;top=0;left=0;right=0;bottom=0;rounded=0;" parent="-QC0LfeOqHy5VNt_hiCN-1" vertex="1">
          <mxGeometry y="247" width="216" height="30" as="geometry" />
        </mxCell>
        <mxCell id="-QC0LfeOqHy5VNt_hiCN-21" value="" style="shape=partialRectangle;connectable=0;fillColor=none;top=0;left=0;bottom=0;right=0;editable=1;overflow=hidden;whiteSpace=wrap;html=1;rounded=0;" parent="-QC0LfeOqHy5VNt_hiCN-20" vertex="1">
          <mxGeometry width="30" height="30" as="geometry">
            <mxRectangle width="30" height="30" as="alternateBounds" />
          </mxGeometry>
        </mxCell>
        <mxCell id="-QC0LfeOqHy5VNt_hiCN-22" value="deplacement" style="shape=partialRectangle;connectable=0;fillColor=none;top=0;left=0;bottom=0;right=0;align=left;spacingLeft=6;overflow=hidden;whiteSpace=wrap;html=1;rounded=0;" parent="-QC0LfeOqHy5VNt_hiCN-20" vertex="1">
          <mxGeometry x="30" width="186" height="30" as="geometry">
            <mxRectangle width="186" height="30" as="alternateBounds" />
          </mxGeometry>
        </mxCell>
        <mxCell id="-QC0LfeOqHy5VNt_hiCN-23" value="" style="shape=tableRow;horizontal=0;startSize=0;swimlaneHead=0;swimlaneBody=0;fillColor=none;collapsible=0;dropTarget=0;points=[[0,0.5],[1,0.5]];portConstraint=eastwest;top=0;left=0;right=0;bottom=0;rounded=0;" parent="-QC0LfeOqHy5VNt_hiCN-1" vertex="1">
          <mxGeometry y="277" width="216" height="30" as="geometry" />
        </mxCell>
        <mxCell id="-QC0LfeOqHy5VNt_hiCN-24" value="" style="shape=partialRectangle;connectable=0;fillColor=none;top=0;left=0;bottom=0;right=0;editable=1;overflow=hidden;whiteSpace=wrap;html=1;rounded=0;" parent="-QC0LfeOqHy5VNt_hiCN-23" vertex="1">
          <mxGeometry width="30" height="30" as="geometry">
            <mxRectangle width="30" height="30" as="alternateBounds" />
          </mxGeometry>
        </mxCell>
        <mxCell id="-QC0LfeOqHy5VNt_hiCN-25" value="qualification" style="shape=partialRectangle;connectable=0;fillColor=none;top=0;left=0;bottom=0;right=0;align=left;spacingLeft=6;overflow=hidden;whiteSpace=wrap;html=1;rounded=0;" parent="-QC0LfeOqHy5VNt_hiCN-23" vertex="1">
          <mxGeometry x="30" width="186" height="30" as="geometry">
            <mxRectangle width="186" height="30" as="alternateBounds" />
          </mxGeometry>
        </mxCell>
        <mxCell id="-QC0LfeOqHy5VNt_hiCN-26" value="" style="shape=tableRow;horizontal=0;startSize=0;swimlaneHead=0;swimlaneBody=0;fillColor=none;collapsible=0;dropTarget=0;points=[[0,0.5],[1,0.5]];portConstraint=eastwest;top=0;left=0;right=0;bottom=0;rounded=0;" parent="-QC0LfeOqHy5VNt_hiCN-1" vertex="1">
          <mxGeometry y="307" width="216" height="30" as="geometry" />
        </mxCell>
        <mxCell id="-QC0LfeOqHy5VNt_hiCN-27" value="" style="shape=partialRectangle;connectable=0;fillColor=none;top=0;left=0;bottom=0;right=0;editable=1;overflow=hidden;whiteSpace=wrap;html=1;rounded=0;" parent="-QC0LfeOqHy5VNt_hiCN-26" vertex="1">
          <mxGeometry width="30" height="30" as="geometry">
            <mxRectangle width="30" height="30" as="alternateBounds" />
          </mxGeometry>
        </mxCell>
        <mxCell id="-QC0LfeOqHy5VNt_hiCN-28" value="origine" style="shape=partialRectangle;connectable=0;fillColor=none;top=0;left=0;bottom=0;right=0;align=left;spacingLeft=6;overflow=hidden;whiteSpace=wrap;html=1;rounded=0;" parent="-QC0LfeOqHy5VNt_hiCN-26" vertex="1">
          <mxGeometry x="30" width="186" height="30" as="geometry">
            <mxRectangle width="186" height="30" as="alternateBounds" />
          </mxGeometry>
        </mxCell>
        <mxCell id="-QC0LfeOqHy5VNt_hiCN-29" value="" style="shape=tableRow;horizontal=0;startSize=0;swimlaneHead=0;swimlaneBody=0;fillColor=none;collapsible=0;dropTarget=0;points=[[0,0.5],[1,0.5]];portConstraint=eastwest;top=0;left=0;right=0;bottom=0;rounded=0;" parent="-QC0LfeOqHy5VNt_hiCN-1" vertex="1">
          <mxGeometry y="337" width="216" height="30" as="geometry" />
        </mxCell>
        <mxCell id="-QC0LfeOqHy5VNt_hiCN-30" value="" style="shape=partialRectangle;connectable=0;fillColor=none;top=0;left=0;bottom=0;right=0;editable=1;overflow=hidden;whiteSpace=wrap;html=1;rounded=0;" parent="-QC0LfeOqHy5VNt_hiCN-29" vertex="1">
          <mxGeometry width="30" height="30" as="geometry">
            <mxRectangle width="30" height="30" as="alternateBounds" />
          </mxGeometry>
        </mxCell>
        <mxCell id="-QC0LfeOqHy5VNt_hiCN-31" value="nom_partenaire" style="shape=partialRectangle;connectable=0;fillColor=none;top=0;left=0;bottom=0;right=0;align=left;spacingLeft=6;overflow=hidden;whiteSpace=wrap;html=1;rounded=0;" parent="-QC0LfeOqHy5VNt_hiCN-29" vertex="1">
          <mxGeometry x="30" width="186" height="30" as="geometry">
            <mxRectangle width="186" height="30" as="alternateBounds" />
          </mxGeometry>
        </mxCell>
        <mxCell id="-QC0LfeOqHy5VNt_hiCN-32" value="" style="shape=tableRow;horizontal=0;startSize=0;swimlaneHead=0;swimlaneBody=0;fillColor=none;collapsible=0;dropTarget=0;points=[[0,0.5],[1,0.5]];portConstraint=eastwest;top=0;left=0;right=0;bottom=0;rounded=0;" parent="-QC0LfeOqHy5VNt_hiCN-1" vertex="1">
          <mxGeometry y="367" width="216" height="30" as="geometry" />
        </mxCell>
        <mxCell id="-QC0LfeOqHy5VNt_hiCN-33" value="" style="shape=partialRectangle;connectable=0;fillColor=none;top=0;left=0;bottom=0;right=0;editable=1;overflow=hidden;whiteSpace=wrap;html=1;rounded=0;" parent="-QC0LfeOqHy5VNt_hiCN-32" vertex="1">
          <mxGeometry width="30" height="30" as="geometry">
            <mxRectangle width="30" height="30" as="alternateBounds" />
          </mxGeometry>
        </mxCell>
        <mxCell id="-QC0LfeOqHy5VNt_hiCN-34" value="manque_candidats" style="shape=partialRectangle;connectable=0;fillColor=none;top=0;left=0;bottom=0;right=0;align=left;spacingLeft=6;overflow=hidden;whiteSpace=wrap;html=1;rounded=0;" parent="-QC0LfeOqHy5VNt_hiCN-32" vertex="1">
          <mxGeometry x="30" width="186" height="30" as="geometry">
            <mxRectangle width="186" height="30" as="alternateBounds" />
          </mxGeometry>
        </mxCell>
        <mxCell id="C7LOxqXwbHzqQDy3l2-N-196" value="" style="shape=tableRow;horizontal=0;startSize=0;swimlaneHead=0;swimlaneBody=0;fillColor=none;collapsible=0;dropTarget=0;points=[[0,0.5],[1,0.5]];portConstraint=eastwest;top=0;left=0;right=0;bottom=0;rounded=0;" vertex="1" parent="-QC0LfeOqHy5VNt_hiCN-1">
          <mxGeometry y="397" width="216" height="30" as="geometry" />
        </mxCell>
        <mxCell id="C7LOxqXwbHzqQDy3l2-N-197" value="" style="shape=partialRectangle;connectable=0;fillColor=none;top=0;left=0;bottom=0;right=0;editable=1;overflow=hidden;whiteSpace=wrap;html=1;rounded=0;" vertex="1" parent="C7LOxqXwbHzqQDy3l2-N-196">
          <mxGeometry width="30" height="30" as="geometry">
            <mxRectangle width="30" height="30" as="alternateBounds" />
          </mxGeometry>
        </mxCell>
        <mxCell id="C7LOxqXwbHzqQDy3l2-N-198" value="complement_exercice" style="shape=partialRectangle;connectable=0;fillColor=none;top=0;left=0;bottom=0;right=0;align=left;spacingLeft=6;overflow=hidden;whiteSpace=wrap;html=1;rounded=0;" vertex="1" parent="C7LOxqXwbHzqQDy3l2-N-196">
          <mxGeometry x="30" width="186" height="30" as="geometry">
            <mxRectangle width="186" height="30" as="alternateBounds" />
          </mxGeometry>
        </mxCell>
        <mxCell id="C7LOxqXwbHzqQDy3l2-N-199" value="" style="shape=tableRow;horizontal=0;startSize=0;swimlaneHead=0;swimlaneBody=0;fillColor=none;collapsible=0;dropTarget=0;points=[[0,0.5],[1,0.5]];portConstraint=eastwest;top=0;left=0;right=0;bottom=0;rounded=0;" vertex="1" parent="-QC0LfeOqHy5VNt_hiCN-1">
          <mxGeometry y="427" width="216" height="30" as="geometry" />
        </mxCell>
        <mxCell id="C7LOxqXwbHzqQDy3l2-N-200" value="" style="shape=partialRectangle;connectable=0;fillColor=none;top=0;left=0;bottom=0;right=0;editable=1;overflow=hidden;whiteSpace=wrap;html=1;rounded=0;" vertex="1" parent="C7LOxqXwbHzqQDy3l2-N-199">
          <mxGeometry width="30" height="30" as="geometry">
            <mxRectangle width="30" height="30" as="alternateBounds" />
          </mxGeometry>
        </mxCell>
        <mxCell id="C7LOxqXwbHzqQDy3l2-N-201" value="condition_exercice" style="shape=partialRectangle;connectable=0;fillColor=none;top=0;left=0;bottom=0;right=0;align=left;spacingLeft=6;overflow=hidden;whiteSpace=wrap;html=1;rounded=0;" vertex="1" parent="C7LOxqXwbHzqQDy3l2-N-199">
          <mxGeometry x="30" width="186" height="30" as="geometry">
            <mxRectangle width="186" height="30" as="alternateBounds" />
          </mxGeometry>
        </mxCell>
        <mxCell id="C7LOxqXwbHzqQDy3l2-N-220" value="" style="shape=tableRow;horizontal=0;startSize=0;swimlaneHead=0;swimlaneBody=0;fillColor=none;collapsible=0;dropTarget=0;points=[[0,0.5],[1,0.5]];portConstraint=eastwest;top=0;left=0;right=0;bottom=0;rounded=0;" vertex="1" parent="-QC0LfeOqHy5VNt_hiCN-1">
          <mxGeometry y="457" width="216" height="30" as="geometry" />
        </mxCell>
        <mxCell id="C7LOxqXwbHzqQDy3l2-N-221" value="" style="shape=partialRectangle;connectable=0;fillColor=none;top=0;left=0;bottom=0;right=0;editable=1;overflow=hidden;whiteSpace=wrap;html=1;rounded=0;" vertex="1" parent="C7LOxqXwbHzqQDy3l2-N-220">
          <mxGeometry width="30" height="30" as="geometry">
            <mxRectangle width="30" height="30" as="alternateBounds" />
          </mxGeometry>
        </mxCell>
        <mxCell id="C7LOxqXwbHzqQDy3l2-N-222" value="salaire_libelle" style="shape=partialRectangle;connectable=0;fillColor=none;top=0;left=0;bottom=0;right=0;align=left;spacingLeft=6;overflow=hidden;whiteSpace=wrap;html=1;rounded=0;" vertex="1" parent="C7LOxqXwbHzqQDy3l2-N-220">
          <mxGeometry x="30" width="186" height="30" as="geometry">
            <mxRectangle width="186" height="30" as="alternateBounds" />
          </mxGeometry>
        </mxCell>
        <mxCell id="C7LOxqXwbHzqQDy3l2-N-223" value="" style="shape=tableRow;horizontal=0;startSize=0;swimlaneHead=0;swimlaneBody=0;fillColor=none;collapsible=0;dropTarget=0;points=[[0,0.5],[1,0.5]];portConstraint=eastwest;top=0;left=0;right=0;bottom=0;rounded=0;" vertex="1" parent="-QC0LfeOqHy5VNt_hiCN-1">
          <mxGeometry y="487" width="216" height="30" as="geometry" />
        </mxCell>
        <mxCell id="C7LOxqXwbHzqQDy3l2-N-224" value="" style="shape=partialRectangle;connectable=0;fillColor=none;top=0;left=0;bottom=0;right=0;editable=1;overflow=hidden;whiteSpace=wrap;html=1;rounded=0;" vertex="1" parent="C7LOxqXwbHzqQDy3l2-N-223">
          <mxGeometry width="30" height="30" as="geometry">
            <mxRectangle width="30" height="30" as="alternateBounds" />
          </mxGeometry>
        </mxCell>
        <mxCell id="C7LOxqXwbHzqQDy3l2-N-225" value="salaire_complement" style="shape=partialRectangle;connectable=0;fillColor=none;top=0;left=0;bottom=0;right=0;align=left;spacingLeft=6;overflow=hidden;whiteSpace=wrap;html=1;rounded=0;" vertex="1" parent="C7LOxqXwbHzqQDy3l2-N-223">
          <mxGeometry x="30" width="186" height="30" as="geometry">
            <mxRectangle width="186" height="30" as="alternateBounds" />
          </mxGeometry>
        </mxCell>
        <mxCell id="-QC0LfeOqHy5VNt_hiCN-35" value="Anime_Genres" style="shape=table;startSize=30;container=1;collapsible=1;childLayout=tableLayout;fixedRows=1;rowLines=0;fontStyle=1;align=center;resizeLast=1;html=1;whiteSpace=wrap;fillColor=#76608a;strokeColor=#432D57;fontColor=#ffffff;" parent="1" vertex="1">
          <mxGeometry x="-1799" y="375" width="180" height="90" as="geometry" />
        </mxCell>
        <mxCell id="-QC0LfeOqHy5VNt_hiCN-36" value="" style="shape=tableRow;horizontal=0;startSize=0;swimlaneHead=0;swimlaneBody=0;fillColor=none;collapsible=0;dropTarget=0;points=[[0,0.5],[1,0.5]];portConstraint=eastwest;top=0;left=0;right=0;bottom=0;html=1;" parent="-QC0LfeOqHy5VNt_hiCN-35" vertex="1">
          <mxGeometry y="30" width="180" height="30" as="geometry" />
        </mxCell>
        <mxCell id="-QC0LfeOqHy5VNt_hiCN-37" value="PK,FK1" style="shape=partialRectangle;connectable=0;fillColor=none;top=0;left=0;bottom=0;right=0;fontStyle=1;overflow=hidden;html=1;whiteSpace=wrap;" parent="-QC0LfeOqHy5VNt_hiCN-36" vertex="1">
          <mxGeometry width="60" height="30" as="geometry">
            <mxRectangle width="60" height="30" as="alternateBounds" />
          </mxGeometry>
        </mxCell>
        <mxCell id="-QC0LfeOqHy5VNt_hiCN-38" value="Anime_ID" style="shape=partialRectangle;connectable=0;fillColor=none;top=0;left=0;bottom=0;right=0;align=left;spacingLeft=6;fontStyle=5;overflow=hidden;html=1;whiteSpace=wrap;" parent="-QC0LfeOqHy5VNt_hiCN-36" vertex="1">
          <mxGeometry x="60" width="120" height="30" as="geometry">
            <mxRectangle width="120" height="30" as="alternateBounds" />
          </mxGeometry>
        </mxCell>
        <mxCell id="-QC0LfeOqHy5VNt_hiCN-39" value="" style="shape=tableRow;horizontal=0;startSize=0;swimlaneHead=0;swimlaneBody=0;fillColor=none;collapsible=0;dropTarget=0;points=[[0,0.5],[1,0.5]];portConstraint=eastwest;top=0;left=0;right=0;bottom=1;html=1;" parent="-QC0LfeOqHy5VNt_hiCN-35" vertex="1">
          <mxGeometry y="60" width="180" height="30" as="geometry" />
        </mxCell>
        <mxCell id="-QC0LfeOqHy5VNt_hiCN-40" value="PK,FK2" style="shape=partialRectangle;connectable=0;fillColor=none;top=0;left=0;bottom=0;right=0;fontStyle=1;overflow=hidden;html=1;whiteSpace=wrap;" parent="-QC0LfeOqHy5VNt_hiCN-39" vertex="1">
          <mxGeometry width="60" height="30" as="geometry">
            <mxRectangle width="60" height="30" as="alternateBounds" />
          </mxGeometry>
        </mxCell>
        <mxCell id="-QC0LfeOqHy5VNt_hiCN-41" value="Genre_ID" style="shape=partialRectangle;connectable=0;fillColor=none;top=0;left=0;bottom=0;right=0;align=left;spacingLeft=6;fontStyle=5;overflow=hidden;html=1;whiteSpace=wrap;" parent="-QC0LfeOqHy5VNt_hiCN-39" vertex="1">
          <mxGeometry x="60" width="120" height="30" as="geometry">
            <mxRectangle width="120" height="30" as="alternateBounds" />
          </mxGeometry>
        </mxCell>
        <mxCell id="-QC0LfeOqHy5VNt_hiCN-42" value="Genres" style="shape=table;startSize=30;container=1;collapsible=1;childLayout=tableLayout;fixedRows=1;rowLines=0;fontStyle=1;align=center;resizeLast=1;html=1;fillColor=#ffe6cc;strokeColor=#d79b00;" parent="1" vertex="1">
          <mxGeometry x="-1510" y="330" width="180" height="90" as="geometry" />
        </mxCell>
        <mxCell id="-QC0LfeOqHy5VNt_hiCN-43" value="" style="shape=tableRow;horizontal=0;startSize=0;swimlaneHead=0;swimlaneBody=0;fillColor=none;collapsible=0;dropTarget=0;points=[[0,0.5],[1,0.5]];portConstraint=eastwest;top=0;left=0;right=0;bottom=1;" parent="-QC0LfeOqHy5VNt_hiCN-42" vertex="1">
          <mxGeometry y="30" width="180" height="30" as="geometry" />
        </mxCell>
        <mxCell id="-QC0LfeOqHy5VNt_hiCN-44" value="PK" style="shape=partialRectangle;connectable=0;fillColor=none;top=0;left=0;bottom=0;right=0;fontStyle=1;overflow=hidden;whiteSpace=wrap;html=1;" parent="-QC0LfeOqHy5VNt_hiCN-43" vertex="1">
          <mxGeometry width="30" height="30" as="geometry">
            <mxRectangle width="30" height="30" as="alternateBounds" />
          </mxGeometry>
        </mxCell>
        <mxCell id="-QC0LfeOqHy5VNt_hiCN-45" value="Genre_ID" style="shape=partialRectangle;connectable=0;fillColor=none;top=0;left=0;bottom=0;right=0;align=left;spacingLeft=6;fontStyle=5;overflow=hidden;whiteSpace=wrap;html=1;" parent="-QC0LfeOqHy5VNt_hiCN-43" vertex="1">
          <mxGeometry x="30" width="150" height="30" as="geometry">
            <mxRectangle width="150" height="30" as="alternateBounds" />
          </mxGeometry>
        </mxCell>
        <mxCell id="-QC0LfeOqHy5VNt_hiCN-46" value="" style="shape=tableRow;horizontal=0;startSize=0;swimlaneHead=0;swimlaneBody=0;fillColor=none;collapsible=0;dropTarget=0;points=[[0,0.5],[1,0.5]];portConstraint=eastwest;top=0;left=0;right=0;bottom=0;" parent="-QC0LfeOqHy5VNt_hiCN-42" vertex="1">
          <mxGeometry y="60" width="180" height="30" as="geometry" />
        </mxCell>
        <mxCell id="-QC0LfeOqHy5VNt_hiCN-47" value="" style="shape=partialRectangle;connectable=0;fillColor=none;top=0;left=0;bottom=0;right=0;editable=1;overflow=hidden;whiteSpace=wrap;html=1;" parent="-QC0LfeOqHy5VNt_hiCN-46" vertex="1">
          <mxGeometry width="30" height="30" as="geometry">
            <mxRectangle width="30" height="30" as="alternateBounds" />
          </mxGeometry>
        </mxCell>
        <mxCell id="-QC0LfeOqHy5VNt_hiCN-48" value="Genre_name" style="shape=partialRectangle;connectable=0;fillColor=none;top=0;left=0;bottom=0;right=0;align=left;spacingLeft=6;overflow=hidden;whiteSpace=wrap;html=1;" parent="-QC0LfeOqHy5VNt_hiCN-46" vertex="1">
          <mxGeometry x="30" width="150" height="30" as="geometry">
            <mxRectangle width="150" height="30" as="alternateBounds" />
          </mxGeometry>
        </mxCell>
        <mxCell id="-QC0LfeOqHy5VNt_hiCN-63" style="edgeStyle=orthogonalEdgeStyle;rounded=0;orthogonalLoop=1;jettySize=auto;html=1;endArrow=none;endFill=0;exitX=1;exitY=0.5;exitDx=0;exitDy=0;curved=1;" parent="1" source="-QC0LfeOqHy5VNt_hiCN-75" target="-QC0LfeOqHy5VNt_hiCN-80" edge="1">
          <mxGeometry relative="1" as="geometry" />
        </mxCell>
        <mxCell id="-QC0LfeOqHy5VNt_hiCN-64" value="&amp;nbsp;1&amp;nbsp;" style="edgeLabel;html=1;align=center;verticalAlign=middle;resizable=0;points=[];fontSize=15;" parent="-QC0LfeOqHy5VNt_hiCN-63" vertex="1" connectable="0">
          <mxGeometry x="-0.6423" y="-1" relative="1" as="geometry">
            <mxPoint x="-2" y="-1" as="offset" />
          </mxGeometry>
        </mxCell>
        <mxCell id="-QC0LfeOqHy5VNt_hiCN-65" value="" style="shape=table;startSize=30;container=1;collapsible=1;childLayout=tableLayout;fixedRows=1;rowLines=0;fontStyle=1;align=center;resizeLast=1;html=1;fillColor=#ffe6cc;strokeColor=#d79b00;rounded=0;" parent="1" vertex="1">
          <mxGeometry x="-2610" y="300" width="180" height="120" as="geometry" />
        </mxCell>
        <mxCell id="-QC0LfeOqHy5VNt_hiCN-66" value="" style="shape=tableRow;horizontal=0;startSize=0;swimlaneHead=0;swimlaneBody=0;fillColor=none;collapsible=0;dropTarget=0;points=[[0,0.5],[1,0.5]];portConstraint=eastwest;top=0;left=0;right=0;bottom=1;rounded=0;" parent="-QC0LfeOqHy5VNt_hiCN-65" vertex="1">
          <mxGeometry y="30" width="180" height="30" as="geometry" />
        </mxCell>
        <mxCell id="-QC0LfeOqHy5VNt_hiCN-67" value="PK" style="shape=partialRectangle;connectable=0;fillColor=none;top=0;left=0;bottom=0;right=0;fontStyle=1;overflow=hidden;whiteSpace=wrap;html=1;rounded=0;" parent="-QC0LfeOqHy5VNt_hiCN-66" vertex="1">
          <mxGeometry width="31.950042724609375" height="30" as="geometry">
            <mxRectangle width="31.950042724609375" height="30" as="alternateBounds" />
          </mxGeometry>
        </mxCell>
        <mxCell id="-QC0LfeOqHy5VNt_hiCN-68" value="" style="shape=partialRectangle;connectable=0;fillColor=none;top=0;left=0;bottom=0;right=0;align=left;spacingLeft=6;fontStyle=5;overflow=hidden;whiteSpace=wrap;html=1;rounded=0;" parent="-QC0LfeOqHy5VNt_hiCN-66" vertex="1">
          <mxGeometry x="31.950042724609375" width="148.04995727539062" height="30" as="geometry">
            <mxRectangle width="148.04995727539062" height="30" as="alternateBounds" />
          </mxGeometry>
        </mxCell>
        <mxCell id="-QC0LfeOqHy5VNt_hiCN-72" value="" style="shape=tableRow;horizontal=0;startSize=0;swimlaneHead=0;swimlaneBody=0;fillColor=none;collapsible=0;dropTarget=0;points=[[0,0.5],[1,0.5]];portConstraint=eastwest;top=0;left=0;right=0;bottom=0;rounded=0;" parent="-QC0LfeOqHy5VNt_hiCN-65" vertex="1">
          <mxGeometry y="60" width="180" height="30" as="geometry" />
        </mxCell>
        <mxCell id="-QC0LfeOqHy5VNt_hiCN-73" value="" style="shape=partialRectangle;connectable=0;fillColor=none;top=0;left=0;bottom=0;right=0;editable=1;overflow=hidden;whiteSpace=wrap;html=1;rounded=0;" parent="-QC0LfeOqHy5VNt_hiCN-72" vertex="1">
          <mxGeometry width="31.950042724609375" height="30" as="geometry">
            <mxRectangle width="31.950042724609375" height="30" as="alternateBounds" />
          </mxGeometry>
        </mxCell>
        <mxCell id="-QC0LfeOqHy5VNt_hiCN-74" value="" style="shape=partialRectangle;connectable=0;fillColor=none;top=0;left=0;bottom=0;right=0;align=left;spacingLeft=6;overflow=hidden;whiteSpace=wrap;html=1;rounded=0;" parent="-QC0LfeOqHy5VNt_hiCN-72" vertex="1">
          <mxGeometry x="31.950042724609375" width="148.04995727539062" height="30" as="geometry">
            <mxRectangle width="148.04995727539062" height="30" as="alternateBounds" />
          </mxGeometry>
        </mxCell>
        <mxCell id="-QC0LfeOqHy5VNt_hiCN-75" value="" style="shape=tableRow;horizontal=0;startSize=0;swimlaneHead=0;swimlaneBody=0;fillColor=none;collapsible=0;dropTarget=0;points=[[0,0.5],[1,0.5]];portConstraint=eastwest;top=0;left=0;right=0;bottom=0;rounded=0;" parent="-QC0LfeOqHy5VNt_hiCN-65" vertex="1">
          <mxGeometry y="90" width="180" height="30" as="geometry" />
        </mxCell>
        <mxCell id="-QC0LfeOqHy5VNt_hiCN-76" value="FK" style="shape=partialRectangle;connectable=0;fillColor=none;top=0;left=0;bottom=0;right=0;editable=1;overflow=hidden;whiteSpace=wrap;html=1;rounded=0;" parent="-QC0LfeOqHy5VNt_hiCN-75" vertex="1">
          <mxGeometry width="31.950042724609375" height="30" as="geometry">
            <mxRectangle width="31.950042724609375" height="30" as="alternateBounds" />
          </mxGeometry>
        </mxCell>
        <mxCell id="-QC0LfeOqHy5VNt_hiCN-77" value="" style="shape=partialRectangle;connectable=0;fillColor=none;top=0;left=0;bottom=0;right=0;align=left;spacingLeft=6;overflow=hidden;whiteSpace=wrap;html=1;rounded=0;" parent="-QC0LfeOqHy5VNt_hiCN-75" vertex="1">
          <mxGeometry x="31.950042724609375" width="148.04995727539062" height="30" as="geometry">
            <mxRectangle width="148.04995727539062" height="30" as="alternateBounds" />
          </mxGeometry>
        </mxCell>
        <mxCell id="-QC0LfeOqHy5VNt_hiCN-78" style="edgeStyle=orthogonalEdgeStyle;rounded=0;orthogonalLoop=1;jettySize=auto;html=1;endArrow=none;endFill=0;strokeColor=default;curved=1;" parent="1" source="-QC0LfeOqHy5VNt_hiCN-80" target="-QC0LfeOqHy5VNt_hiCN-2" edge="1">
          <mxGeometry relative="1" as="geometry" />
        </mxCell>
        <mxCell id="-QC0LfeOqHy5VNt_hiCN-79" value="&amp;nbsp;1&amp;nbsp;" style="edgeLabel;html=1;align=center;verticalAlign=middle;resizable=0;points=[];fontSize=15;" parent="-QC0LfeOqHy5VNt_hiCN-78" vertex="1" connectable="0">
          <mxGeometry x="0.6993" y="3" relative="1" as="geometry">
            <mxPoint x="-6" y="-1" as="offset" />
          </mxGeometry>
        </mxCell>
        <mxCell id="-QC0LfeOqHy5VNt_hiCN-80" value="Diffuse" style="rounded=1;whiteSpace=wrap;html=1;fillColor=#d5e8d4;strokeColor=#82b366;" parent="1" vertex="1">
          <mxGeometry x="-2350" y="436" width="120" height="60" as="geometry" />
        </mxCell>
        <mxCell id="-QC0LfeOqHy5VNt_hiCN-82" style="edgeStyle=orthogonalEdgeStyle;rounded=0;orthogonalLoop=1;jettySize=auto;html=1;endArrow=none;endFill=0;curved=1;" parent="1" source="-QC0LfeOqHy5VNt_hiCN-39" target="-QC0LfeOqHy5VNt_hiCN-43" edge="1">
          <mxGeometry relative="1" as="geometry" />
        </mxCell>
        <mxCell id="-QC0LfeOqHy5VNt_hiCN-98" style="edgeStyle=orthogonalEdgeStyle;rounded=0;orthogonalLoop=1;jettySize=auto;html=1;exitX=1;exitY=0.5;exitDx=0;exitDy=0;entryX=0;entryY=0.5;entryDx=0;entryDy=0;endArrow=none;endFill=0;curved=1;" parent="1" source="-QC0LfeOqHy5VNt_hiCN-2" target="-QC0LfeOqHy5VNt_hiCN-36" edge="1">
          <mxGeometry relative="1" as="geometry">
            <mxPoint x="-1920" y="509.0000000000002" as="sourcePoint" />
          </mxGeometry>
        </mxCell>
        <mxCell id="-QC0LfeOqHy5VNt_hiCN-99" value="&amp;nbsp;N&amp;nbsp;" style="edgeLabel;html=1;align=center;verticalAlign=middle;resizable=0;points=[];fontSize=15;" parent="-QC0LfeOqHy5VNt_hiCN-98" vertex="1" connectable="0">
          <mxGeometry x="-0.6821" y="1" relative="1" as="geometry">
            <mxPoint x="17" y="-15" as="offset" />
          </mxGeometry>
        </mxCell>
        <mxCell id="-QC0LfeOqHy5VNt_hiCN-102" value="convention d&#39;écriture des cardinalités : française" style="text;html=1;align=center;verticalAlign=middle;resizable=0;points=[];autosize=1;strokeColor=none;fillColor=none;fontSize=15;" parent="1" vertex="1">
          <mxGeometry x="-2228" y="240" width="338" height="30" as="geometry" />
        </mxCell>
        <mxCell id="-QC0LfeOqHy5VNt_hiCN-105" value="&amp;nbsp;N&amp;nbsp;" style="edgeLabel;html=1;align=center;verticalAlign=middle;resizable=0;points=[];fontSize=15;" parent="1" vertex="1" connectable="0">
          <mxGeometry x="-1650" y="374.9999999999998" as="geometry">
            <mxPoint x="120" y="-20" as="offset" />
          </mxGeometry>
        </mxCell>
        <mxCell id="C7LOxqXwbHzqQDy3l2-N-1" value="entreprises" style="shape=table;startSize=30;container=1;collapsible=1;childLayout=tableLayout;fixedRows=1;rowLines=0;fontStyle=1;align=center;resizeLast=1;html=1;fillColor=#ffe6cc;strokeColor=#d79b00;rounded=0;" vertex="1" parent="1">
          <mxGeometry x="-2750" y="540" width="180" height="270" as="geometry" />
        </mxCell>
        <mxCell id="C7LOxqXwbHzqQDy3l2-N-2" value="" style="shape=tableRow;horizontal=0;startSize=0;swimlaneHead=0;swimlaneBody=0;fillColor=none;collapsible=0;dropTarget=0;points=[[0,0.5],[1,0.5]];portConstraint=eastwest;top=0;left=0;right=0;bottom=1;rounded=0;" vertex="1" parent="C7LOxqXwbHzqQDy3l2-N-1">
          <mxGeometry y="30" width="180" height="30" as="geometry" />
        </mxCell>
        <mxCell id="C7LOxqXwbHzqQDy3l2-N-3" value="PK" style="shape=partialRectangle;connectable=0;fillColor=none;top=0;left=0;bottom=0;right=0;fontStyle=1;overflow=hidden;whiteSpace=wrap;html=1;rounded=0;" vertex="1" parent="C7LOxqXwbHzqQDy3l2-N-2">
          <mxGeometry width="31.950042724609375" height="30" as="geometry">
            <mxRectangle width="31.950042724609375" height="30" as="alternateBounds" />
          </mxGeometry>
        </mxCell>
        <mxCell id="C7LOxqXwbHzqQDy3l2-N-4" value="nom_entreprise" style="shape=partialRectangle;connectable=0;fillColor=none;top=0;left=0;bottom=0;right=0;align=left;spacingLeft=6;fontStyle=5;overflow=hidden;whiteSpace=wrap;html=1;rounded=0;" vertex="1" parent="C7LOxqXwbHzqQDy3l2-N-2">
          <mxGeometry x="31.950042724609375" width="148.04995727539062" height="30" as="geometry">
            <mxRectangle width="148.04995727539062" height="30" as="alternateBounds" />
          </mxGeometry>
        </mxCell>
        <mxCell id="C7LOxqXwbHzqQDy3l2-N-5" value="" style="shape=tableRow;horizontal=0;startSize=0;swimlaneHead=0;swimlaneBody=0;fillColor=none;collapsible=0;dropTarget=0;points=[[0,0.5],[1,0.5]];portConstraint=eastwest;top=0;left=0;right=0;bottom=0;rounded=0;" vertex="1" parent="C7LOxqXwbHzqQDy3l2-N-1">
          <mxGeometry y="60" width="180" height="30" as="geometry" />
        </mxCell>
        <mxCell id="C7LOxqXwbHzqQDy3l2-N-6" value="" style="shape=partialRectangle;connectable=0;fillColor=none;top=0;left=0;bottom=0;right=0;editable=1;overflow=hidden;whiteSpace=wrap;html=1;rounded=0;" vertex="1" parent="C7LOxqXwbHzqQDy3l2-N-5">
          <mxGeometry width="31.950042724609375" height="30" as="geometry">
            <mxRectangle width="31.950042724609375" height="30" as="alternateBounds" />
          </mxGeometry>
        </mxCell>
        <mxCell id="C7LOxqXwbHzqQDy3l2-N-7" value="entreprise_adaptee" style="shape=partialRectangle;connectable=0;fillColor=none;top=0;left=0;bottom=0;right=0;align=left;spacingLeft=6;overflow=hidden;whiteSpace=wrap;html=1;rounded=0;" vertex="1" parent="C7LOxqXwbHzqQDy3l2-N-5">
          <mxGeometry x="31.950042724609375" width="148.04995727539062" height="30" as="geometry">
            <mxRectangle width="148.04995727539062" height="30" as="alternateBounds" />
          </mxGeometry>
        </mxCell>
        <mxCell id="C7LOxqXwbHzqQDy3l2-N-211" value="" style="shape=tableRow;horizontal=0;startSize=0;swimlaneHead=0;swimlaneBody=0;fillColor=none;collapsible=0;dropTarget=0;points=[[0,0.5],[1,0.5]];portConstraint=eastwest;top=0;left=0;right=0;bottom=0;rounded=0;" vertex="1" parent="C7LOxqXwbHzqQDy3l2-N-1">
          <mxGeometry y="90" width="180" height="30" as="geometry" />
        </mxCell>
        <mxCell id="C7LOxqXwbHzqQDy3l2-N-212" value="" style="shape=partialRectangle;connectable=0;fillColor=none;top=0;left=0;bottom=0;right=0;editable=1;overflow=hidden;whiteSpace=wrap;html=1;rounded=0;" vertex="1" parent="C7LOxqXwbHzqQDy3l2-N-211">
          <mxGeometry width="31.950042724609375" height="30" as="geometry">
            <mxRectangle width="31.950042724609375" height="30" as="alternateBounds" />
          </mxGeometry>
        </mxCell>
        <mxCell id="C7LOxqXwbHzqQDy3l2-N-213" value="localisation" style="shape=partialRectangle;connectable=0;fillColor=none;top=0;left=0;bottom=0;right=0;align=left;spacingLeft=6;overflow=hidden;whiteSpace=wrap;html=1;rounded=0;" vertex="1" parent="C7LOxqXwbHzqQDy3l2-N-211">
          <mxGeometry x="31.950042724609375" width="148.04995727539062" height="30" as="geometry">
            <mxRectangle width="148.04995727539062" height="30" as="alternateBounds" />
          </mxGeometry>
        </mxCell>
        <mxCell id="C7LOxqXwbHzqQDy3l2-N-8" value="" style="shape=tableRow;horizontal=0;startSize=0;swimlaneHead=0;swimlaneBody=0;fillColor=none;collapsible=0;dropTarget=0;points=[[0,0.5],[1,0.5]];portConstraint=eastwest;top=0;left=0;right=0;bottom=0;rounded=0;" vertex="1" parent="C7LOxqXwbHzqQDy3l2-N-1">
          <mxGeometry y="120" width="180" height="30" as="geometry" />
        </mxCell>
        <mxCell id="C7LOxqXwbHzqQDy3l2-N-9" value="" style="shape=partialRectangle;connectable=0;fillColor=none;top=0;left=0;bottom=0;right=0;editable=1;overflow=hidden;whiteSpace=wrap;html=1;rounded=0;" vertex="1" parent="C7LOxqXwbHzqQDy3l2-N-8">
          <mxGeometry width="31.950042724609375" height="30" as="geometry">
            <mxRectangle width="31.950042724609375" height="30" as="alternateBounds" />
          </mxGeometry>
        </mxCell>
        <mxCell id="C7LOxqXwbHzqQDy3l2-N-10" value="commune" style="shape=partialRectangle;connectable=0;fillColor=none;top=0;left=0;bottom=0;right=0;align=left;spacingLeft=6;overflow=hidden;whiteSpace=wrap;html=1;rounded=0;" vertex="1" parent="C7LOxqXwbHzqQDy3l2-N-8">
          <mxGeometry x="31.950042724609375" width="148.04995727539062" height="30" as="geometry">
            <mxRectangle width="148.04995727539062" height="30" as="alternateBounds" />
          </mxGeometry>
        </mxCell>
        <mxCell id="C7LOxqXwbHzqQDy3l2-N-11" value="" style="shape=tableRow;horizontal=0;startSize=0;swimlaneHead=0;swimlaneBody=0;fillColor=none;collapsible=0;dropTarget=0;points=[[0,0.5],[1,0.5]];portConstraint=eastwest;top=0;left=0;right=0;bottom=0;rounded=0;" vertex="1" parent="C7LOxqXwbHzqQDy3l2-N-1">
          <mxGeometry y="150" width="180" height="30" as="geometry" />
        </mxCell>
        <mxCell id="C7LOxqXwbHzqQDy3l2-N-12" value="" style="shape=partialRectangle;connectable=0;fillColor=none;top=0;left=0;bottom=0;right=0;editable=1;overflow=hidden;whiteSpace=wrap;html=1;rounded=0;" vertex="1" parent="C7LOxqXwbHzqQDy3l2-N-11">
          <mxGeometry width="31.950042724609375" height="30" as="geometry">
            <mxRectangle width="31.950042724609375" height="30" as="alternateBounds" />
          </mxGeometry>
        </mxCell>
        <mxCell id="C7LOxqXwbHzqQDy3l2-N-13" value="latitude" style="shape=partialRectangle;connectable=0;fillColor=none;top=0;left=0;bottom=0;right=0;align=left;spacingLeft=6;overflow=hidden;whiteSpace=wrap;html=1;rounded=0;" vertex="1" parent="C7LOxqXwbHzqQDy3l2-N-11">
          <mxGeometry x="31.950042724609375" width="148.04995727539062" height="30" as="geometry">
            <mxRectangle width="148.04995727539062" height="30" as="alternateBounds" />
          </mxGeometry>
        </mxCell>
        <mxCell id="C7LOxqXwbHzqQDy3l2-N-14" value="" style="shape=tableRow;horizontal=0;startSize=0;swimlaneHead=0;swimlaneBody=0;fillColor=none;collapsible=0;dropTarget=0;points=[[0,0.5],[1,0.5]];portConstraint=eastwest;top=0;left=0;right=0;bottom=0;rounded=0;" vertex="1" parent="C7LOxqXwbHzqQDy3l2-N-1">
          <mxGeometry y="180" width="180" height="30" as="geometry" />
        </mxCell>
        <mxCell id="C7LOxqXwbHzqQDy3l2-N-15" value="" style="shape=partialRectangle;connectable=0;fillColor=none;top=0;left=0;bottom=0;right=0;editable=1;overflow=hidden;whiteSpace=wrap;html=1;rounded=0;" vertex="1" parent="C7LOxqXwbHzqQDy3l2-N-14">
          <mxGeometry width="31.950042724609375" height="30" as="geometry">
            <mxRectangle width="31.950042724609375" height="30" as="alternateBounds" />
          </mxGeometry>
        </mxCell>
        <mxCell id="C7LOxqXwbHzqQDy3l2-N-16" value="longitude" style="shape=partialRectangle;connectable=0;fillColor=none;top=0;left=0;bottom=0;right=0;align=left;spacingLeft=6;overflow=hidden;whiteSpace=wrap;html=1;rounded=0;" vertex="1" parent="C7LOxqXwbHzqQDy3l2-N-14">
          <mxGeometry x="31.950042724609375" width="148.04995727539062" height="30" as="geometry">
            <mxRectangle width="148.04995727539062" height="30" as="alternateBounds" />
          </mxGeometry>
        </mxCell>
        <mxCell id="C7LOxqXwbHzqQDy3l2-N-17" value="" style="shape=tableRow;horizontal=0;startSize=0;swimlaneHead=0;swimlaneBody=0;fillColor=none;collapsible=0;dropTarget=0;points=[[0,0.5],[1,0.5]];portConstraint=eastwest;top=0;left=0;right=0;bottom=0;rounded=0;" vertex="1" parent="C7LOxqXwbHzqQDy3l2-N-1">
          <mxGeometry y="210" width="180" height="30" as="geometry" />
        </mxCell>
        <mxCell id="C7LOxqXwbHzqQDy3l2-N-18" value="" style="shape=partialRectangle;connectable=0;fillColor=none;top=0;left=0;bottom=0;right=0;editable=1;overflow=hidden;whiteSpace=wrap;html=1;rounded=0;" vertex="1" parent="C7LOxqXwbHzqQDy3l2-N-17">
          <mxGeometry width="31.950042724609375" height="30" as="geometry">
            <mxRectangle width="31.950042724609375" height="30" as="alternateBounds" />
          </mxGeometry>
        </mxCell>
        <mxCell id="C7LOxqXwbHzqQDy3l2-N-19" value="codePostal" style="shape=partialRectangle;connectable=0;fillColor=none;top=0;left=0;bottom=0;right=0;align=left;spacingLeft=6;overflow=hidden;whiteSpace=wrap;html=1;rounded=0;" vertex="1" parent="C7LOxqXwbHzqQDy3l2-N-17">
          <mxGeometry x="31.950042724609375" width="148.04995727539062" height="30" as="geometry">
            <mxRectangle width="148.04995727539062" height="30" as="alternateBounds" />
          </mxGeometry>
        </mxCell>
        <mxCell id="C7LOxqXwbHzqQDy3l2-N-39" value="" style="shape=tableRow;horizontal=0;startSize=0;swimlaneHead=0;swimlaneBody=0;fillColor=none;collapsible=0;dropTarget=0;points=[[0,0.5],[1,0.5]];portConstraint=eastwest;top=0;left=0;right=0;bottom=0;rounded=0;" vertex="1" parent="C7LOxqXwbHzqQDy3l2-N-1">
          <mxGeometry y="240" width="180" height="30" as="geometry" />
        </mxCell>
        <mxCell id="C7LOxqXwbHzqQDy3l2-N-40" value="FK" style="shape=partialRectangle;connectable=0;fillColor=none;top=0;left=0;bottom=0;right=0;editable=1;overflow=hidden;whiteSpace=wrap;html=1;rounded=0;" vertex="1" parent="C7LOxqXwbHzqQDy3l2-N-39">
          <mxGeometry width="31.950042724609375" height="30" as="geometry">
            <mxRectangle width="31.950042724609375" height="30" as="alternateBounds" />
          </mxGeometry>
        </mxCell>
        <mxCell id="C7LOxqXwbHzqQDy3l2-N-41" value="id_offre" style="shape=partialRectangle;connectable=0;fillColor=none;top=0;left=0;bottom=0;right=0;align=left;spacingLeft=6;overflow=hidden;whiteSpace=wrap;html=1;rounded=0;" vertex="1" parent="C7LOxqXwbHzqQDy3l2-N-39">
          <mxGeometry x="31.950042724609375" width="148.04995727539062" height="30" as="geometry">
            <mxRectangle width="148.04995727539062" height="30" as="alternateBounds" />
          </mxGeometry>
        </mxCell>
        <mxCell id="C7LOxqXwbHzqQDy3l2-N-42" value="codes_rome" style="shape=table;startSize=30;container=1;collapsible=1;childLayout=tableLayout;fixedRows=1;rowLines=0;fontStyle=1;align=center;resizeLast=1;html=1;fillColor=#ffe6cc;strokeColor=#d79b00;rounded=0;" vertex="1" parent="1">
          <mxGeometry x="-1910" y="1030" width="180" height="150" as="geometry" />
        </mxCell>
        <mxCell id="C7LOxqXwbHzqQDy3l2-N-43" value="" style="shape=tableRow;horizontal=0;startSize=0;swimlaneHead=0;swimlaneBody=0;fillColor=none;collapsible=0;dropTarget=0;points=[[0,0.5],[1,0.5]];portConstraint=eastwest;top=0;left=0;right=0;bottom=1;rounded=0;" vertex="1" parent="C7LOxqXwbHzqQDy3l2-N-42">
          <mxGeometry y="30" width="180" height="30" as="geometry" />
        </mxCell>
        <mxCell id="C7LOxqXwbHzqQDy3l2-N-44" value="PK" style="shape=partialRectangle;connectable=0;fillColor=none;top=0;left=0;bottom=0;right=0;fontStyle=1;overflow=hidden;whiteSpace=wrap;html=1;rounded=0;" vertex="1" parent="C7LOxqXwbHzqQDy3l2-N-43">
          <mxGeometry width="31.950042724609375" height="30" as="geometry">
            <mxRectangle width="31.950042724609375" height="30" as="alternateBounds" />
          </mxGeometry>
        </mxCell>
        <mxCell id="C7LOxqXwbHzqQDy3l2-N-45" value="romeCode" style="shape=partialRectangle;connectable=0;fillColor=none;top=0;left=0;bottom=0;right=0;align=left;spacingLeft=6;fontStyle=5;overflow=hidden;whiteSpace=wrap;html=1;rounded=0;" vertex="1" parent="C7LOxqXwbHzqQDy3l2-N-43">
          <mxGeometry x="31.950042724609375" width="148.04995727539062" height="30" as="geometry">
            <mxRectangle width="148.04995727539062" height="30" as="alternateBounds" />
          </mxGeometry>
        </mxCell>
        <mxCell id="C7LOxqXwbHzqQDy3l2-N-46" value="" style="shape=tableRow;horizontal=0;startSize=0;swimlaneHead=0;swimlaneBody=0;fillColor=none;collapsible=0;dropTarget=0;points=[[0,0.5],[1,0.5]];portConstraint=eastwest;top=0;left=0;right=0;bottom=0;rounded=0;" vertex="1" parent="C7LOxqXwbHzqQDy3l2-N-42">
          <mxGeometry y="60" width="180" height="30" as="geometry" />
        </mxCell>
        <mxCell id="C7LOxqXwbHzqQDy3l2-N-47" value="" style="shape=partialRectangle;connectable=0;fillColor=none;top=0;left=0;bottom=0;right=0;editable=1;overflow=hidden;whiteSpace=wrap;html=1;rounded=0;" vertex="1" parent="C7LOxqXwbHzqQDy3l2-N-46">
          <mxGeometry width="31.950042724609375" height="30" as="geometry">
            <mxRectangle width="31.950042724609375" height="30" as="alternateBounds" />
          </mxGeometry>
        </mxCell>
        <mxCell id="C7LOxqXwbHzqQDy3l2-N-48" value="romeLibelle" style="shape=partialRectangle;connectable=0;fillColor=none;top=0;left=0;bottom=0;right=0;align=left;spacingLeft=6;overflow=hidden;whiteSpace=wrap;html=1;rounded=0;" vertex="1" parent="C7LOxqXwbHzqQDy3l2-N-46">
          <mxGeometry x="31.950042724609375" width="148.04995727539062" height="30" as="geometry">
            <mxRectangle width="148.04995727539062" height="30" as="alternateBounds" />
          </mxGeometry>
        </mxCell>
        <mxCell id="C7LOxqXwbHzqQDy3l2-N-49" value="" style="shape=tableRow;horizontal=0;startSize=0;swimlaneHead=0;swimlaneBody=0;fillColor=none;collapsible=0;dropTarget=0;points=[[0,0.5],[1,0.5]];portConstraint=eastwest;top=0;left=0;right=0;bottom=0;rounded=0;" vertex="1" parent="C7LOxqXwbHzqQDy3l2-N-42">
          <mxGeometry y="90" width="180" height="30" as="geometry" />
        </mxCell>
        <mxCell id="C7LOxqXwbHzqQDy3l2-N-50" value="" style="shape=partialRectangle;connectable=0;fillColor=none;top=0;left=0;bottom=0;right=0;editable=1;overflow=hidden;whiteSpace=wrap;html=1;rounded=0;" vertex="1" parent="C7LOxqXwbHzqQDy3l2-N-49">
          <mxGeometry width="31.950042724609375" height="30" as="geometry">
            <mxRectangle width="31.950042724609375" height="30" as="alternateBounds" />
          </mxGeometry>
        </mxCell>
        <mxCell id="C7LOxqXwbHzqQDy3l2-N-51" value="appellationLibelle" style="shape=partialRectangle;connectable=0;fillColor=none;top=0;left=0;bottom=0;right=0;align=left;spacingLeft=6;overflow=hidden;whiteSpace=wrap;html=1;rounded=0;" vertex="1" parent="C7LOxqXwbHzqQDy3l2-N-49">
          <mxGeometry x="31.950042724609375" width="148.04995727539062" height="30" as="geometry">
            <mxRectangle width="148.04995727539062" height="30" as="alternateBounds" />
          </mxGeometry>
        </mxCell>
        <mxCell id="C7LOxqXwbHzqQDy3l2-N-61" value="" style="shape=tableRow;horizontal=0;startSize=0;swimlaneHead=0;swimlaneBody=0;fillColor=none;collapsible=0;dropTarget=0;points=[[0,0.5],[1,0.5]];portConstraint=eastwest;top=0;left=0;right=0;bottom=0;rounded=0;" vertex="1" parent="C7LOxqXwbHzqQDy3l2-N-42">
          <mxGeometry y="120" width="180" height="30" as="geometry" />
        </mxCell>
        <mxCell id="C7LOxqXwbHzqQDy3l2-N-62" value="FK" style="shape=partialRectangle;connectable=0;fillColor=none;top=0;left=0;bottom=0;right=0;editable=1;overflow=hidden;whiteSpace=wrap;html=1;rounded=0;" vertex="1" parent="C7LOxqXwbHzqQDy3l2-N-61">
          <mxGeometry width="31.950042724609375" height="30" as="geometry">
            <mxRectangle width="31.950042724609375" height="30" as="alternateBounds" />
          </mxGeometry>
        </mxCell>
        <mxCell id="C7LOxqXwbHzqQDy3l2-N-63" value="id_offre" style="shape=partialRectangle;connectable=0;fillColor=none;top=0;left=0;bottom=0;right=0;align=left;spacingLeft=6;overflow=hidden;whiteSpace=wrap;html=1;rounded=0;" vertex="1" parent="C7LOxqXwbHzqQDy3l2-N-61">
          <mxGeometry x="31.950042724609375" width="148.04995727539062" height="30" as="geometry">
            <mxRectangle width="148.04995727539062" height="30" as="alternateBounds" />
          </mxGeometry>
        </mxCell>
        <mxCell id="C7LOxqXwbHzqQDy3l2-N-77" value="contrats" style="shape=table;startSize=30;container=1;collapsible=1;childLayout=tableLayout;fixedRows=1;rowLines=0;fontStyle=1;align=center;resizeLast=1;html=1;fillColor=#ffe6cc;strokeColor=#d79b00;rounded=0;" vertex="1" parent="1">
          <mxGeometry x="-2530" y="730" width="220" height="270" as="geometry" />
        </mxCell>
        <mxCell id="C7LOxqXwbHzqQDy3l2-N-78" value="" style="shape=tableRow;horizontal=0;startSize=0;swimlaneHead=0;swimlaneBody=0;fillColor=none;collapsible=0;dropTarget=0;points=[[0,0.5],[1,0.5]];portConstraint=eastwest;top=0;left=0;right=0;bottom=1;rounded=0;" vertex="1" parent="C7LOxqXwbHzqQDy3l2-N-77">
          <mxGeometry y="30" width="220" height="30" as="geometry" />
        </mxCell>
        <mxCell id="C7LOxqXwbHzqQDy3l2-N-79" value="PK" style="shape=partialRectangle;connectable=0;fillColor=none;top=0;left=0;bottom=0;right=0;fontStyle=1;overflow=hidden;whiteSpace=wrap;html=1;rounded=0;" vertex="1" parent="C7LOxqXwbHzqQDy3l2-N-78">
          <mxGeometry width="31.950042724609375" height="30" as="geometry">
            <mxRectangle width="31.950042724609375" height="30" as="alternateBounds" />
          </mxGeometry>
        </mxCell>
        <mxCell id="C7LOxqXwbHzqQDy3l2-N-80" value="id_contrat" style="shape=partialRectangle;connectable=0;fillColor=none;top=0;left=0;bottom=0;right=0;align=left;spacingLeft=6;fontStyle=5;overflow=hidden;whiteSpace=wrap;html=1;rounded=0;" vertex="1" parent="C7LOxqXwbHzqQDy3l2-N-78">
          <mxGeometry x="31.950042724609375" width="188.04995727539062" height="30" as="geometry">
            <mxRectangle width="188.04995727539062" height="30" as="alternateBounds" />
          </mxGeometry>
        </mxCell>
        <mxCell id="C7LOxqXwbHzqQDy3l2-N-81" value="" style="shape=tableRow;horizontal=0;startSize=0;swimlaneHead=0;swimlaneBody=0;fillColor=none;collapsible=0;dropTarget=0;points=[[0,0.5],[1,0.5]];portConstraint=eastwest;top=0;left=0;right=0;bottom=0;rounded=0;" vertex="1" parent="C7LOxqXwbHzqQDy3l2-N-77">
          <mxGeometry y="60" width="220" height="30" as="geometry" />
        </mxCell>
        <mxCell id="C7LOxqXwbHzqQDy3l2-N-82" value="" style="shape=partialRectangle;connectable=0;fillColor=none;top=0;left=0;bottom=0;right=0;editable=1;overflow=hidden;whiteSpace=wrap;html=1;rounded=0;" vertex="1" parent="C7LOxqXwbHzqQDy3l2-N-81">
          <mxGeometry width="31.950042724609375" height="30" as="geometry">
            <mxRectangle width="31.950042724609375" height="30" as="alternateBounds" />
          </mxGeometry>
        </mxCell>
        <mxCell id="C7LOxqXwbHzqQDy3l2-N-83" value="type_contrat" style="shape=partialRectangle;connectable=0;fillColor=none;top=0;left=0;bottom=0;right=0;align=left;spacingLeft=6;overflow=hidden;whiteSpace=wrap;html=1;rounded=0;" vertex="1" parent="C7LOxqXwbHzqQDy3l2-N-81">
          <mxGeometry x="31.950042724609375" width="188.04995727539062" height="30" as="geometry">
            <mxRectangle width="188.04995727539062" height="30" as="alternateBounds" />
          </mxGeometry>
        </mxCell>
        <mxCell id="C7LOxqXwbHzqQDy3l2-N-87" value="" style="shape=tableRow;horizontal=0;startSize=0;swimlaneHead=0;swimlaneBody=0;fillColor=none;collapsible=0;dropTarget=0;points=[[0,0.5],[1,0.5]];portConstraint=eastwest;top=0;left=0;right=0;bottom=0;rounded=0;" vertex="1" parent="C7LOxqXwbHzqQDy3l2-N-77">
          <mxGeometry y="90" width="220" height="30" as="geometry" />
        </mxCell>
        <mxCell id="C7LOxqXwbHzqQDy3l2-N-88" value="" style="shape=partialRectangle;connectable=0;fillColor=none;top=0;left=0;bottom=0;right=0;editable=1;overflow=hidden;whiteSpace=wrap;html=1;rounded=0;" vertex="1" parent="C7LOxqXwbHzqQDy3l2-N-87">
          <mxGeometry width="31.950042724609375" height="30" as="geometry">
            <mxRectangle width="31.950042724609375" height="30" as="alternateBounds" />
          </mxGeometry>
        </mxCell>
        <mxCell id="C7LOxqXwbHzqQDy3l2-N-89" value="type_contrat_libelle" style="shape=partialRectangle;connectable=0;fillColor=none;top=0;left=0;bottom=0;right=0;align=left;spacingLeft=6;overflow=hidden;whiteSpace=wrap;html=1;rounded=0;" vertex="1" parent="C7LOxqXwbHzqQDy3l2-N-87">
          <mxGeometry x="31.950042724609375" width="188.04995727539062" height="30" as="geometry">
            <mxRectangle width="188.04995727539062" height="30" as="alternateBounds" />
          </mxGeometry>
        </mxCell>
        <mxCell id="C7LOxqXwbHzqQDy3l2-N-90" value="" style="shape=tableRow;horizontal=0;startSize=0;swimlaneHead=0;swimlaneBody=0;fillColor=none;collapsible=0;dropTarget=0;points=[[0,0.5],[1,0.5]];portConstraint=eastwest;top=0;left=0;right=0;bottom=0;rounded=0;" vertex="1" parent="C7LOxqXwbHzqQDy3l2-N-77">
          <mxGeometry y="120" width="220" height="30" as="geometry" />
        </mxCell>
        <mxCell id="C7LOxqXwbHzqQDy3l2-N-91" value="" style="shape=partialRectangle;connectable=0;fillColor=none;top=0;left=0;bottom=0;right=0;editable=1;overflow=hidden;whiteSpace=wrap;html=1;rounded=0;" vertex="1" parent="C7LOxqXwbHzqQDy3l2-N-90">
          <mxGeometry width="31.950042724609375" height="30" as="geometry">
            <mxRectangle width="31.950042724609375" height="30" as="alternateBounds" />
          </mxGeometry>
        </mxCell>
        <mxCell id="C7LOxqXwbHzqQDy3l2-N-92" value="nature_contrat" style="shape=partialRectangle;connectable=0;fillColor=none;top=0;left=0;bottom=0;right=0;align=left;spacingLeft=6;overflow=hidden;whiteSpace=wrap;html=1;rounded=0;" vertex="1" parent="C7LOxqXwbHzqQDy3l2-N-90">
          <mxGeometry x="31.950042724609375" width="188.04995727539062" height="30" as="geometry">
            <mxRectangle width="188.04995727539062" height="30" as="alternateBounds" />
          </mxGeometry>
        </mxCell>
        <mxCell id="C7LOxqXwbHzqQDy3l2-N-150" value="" style="shape=tableRow;horizontal=0;startSize=0;swimlaneHead=0;swimlaneBody=0;fillColor=none;collapsible=0;dropTarget=0;points=[[0,0.5],[1,0.5]];portConstraint=eastwest;top=0;left=0;right=0;bottom=0;rounded=0;" vertex="1" parent="C7LOxqXwbHzqQDy3l2-N-77">
          <mxGeometry y="150" width="220" height="30" as="geometry" />
        </mxCell>
        <mxCell id="C7LOxqXwbHzqQDy3l2-N-151" value="" style="shape=partialRectangle;connectable=0;fillColor=none;top=0;left=0;bottom=0;right=0;editable=1;overflow=hidden;whiteSpace=wrap;html=1;rounded=0;" vertex="1" parent="C7LOxqXwbHzqQDy3l2-N-150">
          <mxGeometry width="31.950042724609375" height="30" as="geometry">
            <mxRectangle width="31.950042724609375" height="30" as="alternateBounds" />
          </mxGeometry>
        </mxCell>
        <mxCell id="C7LOxqXwbHzqQDy3l2-N-152" value="duree_travail_l&lt;span style=&quot;background-color: transparent; color: light-dark(rgb(0, 0, 0), rgb(255, 255, 255));&quot;&gt;ibelle&lt;/span&gt;" style="shape=partialRectangle;connectable=0;fillColor=none;top=0;left=0;bottom=0;right=0;align=left;spacingLeft=6;overflow=hidden;whiteSpace=wrap;html=1;rounded=0;" vertex="1" parent="C7LOxqXwbHzqQDy3l2-N-150">
          <mxGeometry x="31.950042724609375" width="188.04995727539062" height="30" as="geometry">
            <mxRectangle width="188.04995727539062" height="30" as="alternateBounds" />
          </mxGeometry>
        </mxCell>
        <mxCell id="C7LOxqXwbHzqQDy3l2-N-153" value="" style="shape=tableRow;horizontal=0;startSize=0;swimlaneHead=0;swimlaneBody=0;fillColor=none;collapsible=0;dropTarget=0;points=[[0,0.5],[1,0.5]];portConstraint=eastwest;top=0;left=0;right=0;bottom=0;rounded=0;" vertex="1" parent="C7LOxqXwbHzqQDy3l2-N-77">
          <mxGeometry y="180" width="220" height="30" as="geometry" />
        </mxCell>
        <mxCell id="C7LOxqXwbHzqQDy3l2-N-154" value="" style="shape=partialRectangle;connectable=0;fillColor=none;top=0;left=0;bottom=0;right=0;editable=1;overflow=hidden;whiteSpace=wrap;html=1;rounded=0;" vertex="1" parent="C7LOxqXwbHzqQDy3l2-N-153">
          <mxGeometry width="31.950042724609375" height="30" as="geometry">
            <mxRectangle width="31.950042724609375" height="30" as="alternateBounds" />
          </mxGeometry>
        </mxCell>
        <mxCell id="C7LOxqXwbHzqQDy3l2-N-155" value="duree_travail_libelle_converti" style="shape=partialRectangle;connectable=0;fillColor=none;top=0;left=0;bottom=0;right=0;align=left;spacingLeft=6;overflow=hidden;whiteSpace=wrap;html=1;rounded=0;" vertex="1" parent="C7LOxqXwbHzqQDy3l2-N-153">
          <mxGeometry x="31.950042724609375" width="188.04995727539062" height="30" as="geometry">
            <mxRectangle width="188.04995727539062" height="30" as="alternateBounds" />
          </mxGeometry>
        </mxCell>
        <mxCell id="C7LOxqXwbHzqQDy3l2-N-156" value="" style="shape=tableRow;horizontal=0;startSize=0;swimlaneHead=0;swimlaneBody=0;fillColor=none;collapsible=0;dropTarget=0;points=[[0,0.5],[1,0.5]];portConstraint=eastwest;top=0;left=0;right=0;bottom=0;rounded=0;" vertex="1" parent="C7LOxqXwbHzqQDy3l2-N-77">
          <mxGeometry y="210" width="220" height="30" as="geometry" />
        </mxCell>
        <mxCell id="C7LOxqXwbHzqQDy3l2-N-157" value="" style="shape=partialRectangle;connectable=0;fillColor=none;top=0;left=0;bottom=0;right=0;editable=1;overflow=hidden;whiteSpace=wrap;html=1;rounded=0;" vertex="1" parent="C7LOxqXwbHzqQDy3l2-N-156">
          <mxGeometry width="31.950042724609375" height="30" as="geometry">
            <mxRectangle width="31.950042724609375" height="30" as="alternateBounds" />
          </mxGeometry>
        </mxCell>
        <mxCell id="C7LOxqXwbHzqQDy3l2-N-158" value="alternance" style="shape=partialRectangle;connectable=0;fillColor=none;top=0;left=0;bottom=0;right=0;align=left;spacingLeft=6;overflow=hidden;whiteSpace=wrap;html=1;rounded=0;" vertex="1" parent="C7LOxqXwbHzqQDy3l2-N-156">
          <mxGeometry x="31.950042724609375" width="188.04995727539062" height="30" as="geometry">
            <mxRectangle width="188.04995727539062" height="30" as="alternateBounds" />
          </mxGeometry>
        </mxCell>
        <mxCell id="C7LOxqXwbHzqQDy3l2-N-84" value="" style="shape=tableRow;horizontal=0;startSize=0;swimlaneHead=0;swimlaneBody=0;fillColor=none;collapsible=0;dropTarget=0;points=[[0,0.5],[1,0.5]];portConstraint=eastwest;top=0;left=0;right=0;bottom=0;rounded=0;" vertex="1" parent="C7LOxqXwbHzqQDy3l2-N-77">
          <mxGeometry y="240" width="220" height="30" as="geometry" />
        </mxCell>
        <mxCell id="C7LOxqXwbHzqQDy3l2-N-85" value="FK" style="shape=partialRectangle;connectable=0;fillColor=none;top=0;left=0;bottom=0;right=0;editable=1;overflow=hidden;whiteSpace=wrap;html=1;rounded=0;" vertex="1" parent="C7LOxqXwbHzqQDy3l2-N-84">
          <mxGeometry width="31.950042724609375" height="30" as="geometry">
            <mxRectangle width="31.950042724609375" height="30" as="alternateBounds" />
          </mxGeometry>
        </mxCell>
        <mxCell id="C7LOxqXwbHzqQDy3l2-N-86" value="id_offre" style="shape=partialRectangle;connectable=0;fillColor=none;top=0;left=0;bottom=0;right=0;align=left;spacingLeft=6;overflow=hidden;whiteSpace=wrap;html=1;rounded=0;" vertex="1" parent="C7LOxqXwbHzqQDy3l2-N-84">
          <mxGeometry x="31.950042724609375" width="188.04995727539062" height="30" as="geometry">
            <mxRectangle width="188.04995727539062" height="30" as="alternateBounds" />
          </mxGeometry>
        </mxCell>
        <mxCell id="C7LOxqXwbHzqQDy3l2-N-93" value="exigences" style="shape=table;startSize=30;container=1;collapsible=1;childLayout=tableLayout;fixedRows=1;rowLines=0;fontStyle=1;align=center;resizeLast=1;html=1;fillColor=#ffe6cc;strokeColor=#d79b00;rounded=0;" vertex="1" parent="1">
          <mxGeometry x="-1690" y="593.5" width="260" height="450" as="geometry" />
        </mxCell>
        <mxCell id="C7LOxqXwbHzqQDy3l2-N-94" value="" style="shape=tableRow;horizontal=0;startSize=0;swimlaneHead=0;swimlaneBody=0;fillColor=none;collapsible=0;dropTarget=0;points=[[0,0.5],[1,0.5]];portConstraint=eastwest;top=0;left=0;right=0;bottom=1;rounded=0;" vertex="1" parent="C7LOxqXwbHzqQDy3l2-N-93">
          <mxGeometry y="30" width="260" height="30" as="geometry" />
        </mxCell>
        <mxCell id="C7LOxqXwbHzqQDy3l2-N-95" value="PK" style="shape=partialRectangle;connectable=0;fillColor=none;top=0;left=0;bottom=0;right=0;fontStyle=1;overflow=hidden;whiteSpace=wrap;html=1;rounded=0;" vertex="1" parent="C7LOxqXwbHzqQDy3l2-N-94">
          <mxGeometry width="31.950042724609375" height="30" as="geometry">
            <mxRectangle width="31.950042724609375" height="30" as="alternateBounds" />
          </mxGeometry>
        </mxCell>
        <mxCell id="C7LOxqXwbHzqQDy3l2-N-96" value="id_exigence" style="shape=partialRectangle;connectable=0;fillColor=none;top=0;left=0;bottom=0;right=0;align=left;spacingLeft=6;fontStyle=5;overflow=hidden;whiteSpace=wrap;html=1;rounded=0;" vertex="1" parent="C7LOxqXwbHzqQDy3l2-N-94">
          <mxGeometry x="31.950042724609375" width="228.04995727539062" height="30" as="geometry">
            <mxRectangle width="228.04995727539062" height="30" as="alternateBounds" />
          </mxGeometry>
        </mxCell>
        <mxCell id="C7LOxqXwbHzqQDy3l2-N-97" value="" style="shape=tableRow;horizontal=0;startSize=0;swimlaneHead=0;swimlaneBody=0;fillColor=none;collapsible=0;dropTarget=0;points=[[0,0.5],[1,0.5]];portConstraint=eastwest;top=0;left=0;right=0;bottom=0;rounded=0;" vertex="1" parent="C7LOxqXwbHzqQDy3l2-N-93">
          <mxGeometry y="60" width="260" height="30" as="geometry" />
        </mxCell>
        <mxCell id="C7LOxqXwbHzqQDy3l2-N-98" value="" style="shape=partialRectangle;connectable=0;fillColor=none;top=0;left=0;bottom=0;right=0;editable=1;overflow=hidden;whiteSpace=wrap;html=1;rounded=0;" vertex="1" parent="C7LOxqXwbHzqQDy3l2-N-97">
          <mxGeometry width="31.950042724609375" height="30" as="geometry">
            <mxRectangle width="31.950042724609375" height="30" as="alternateBounds" />
          </mxGeometry>
        </mxCell>
        <mxCell id="C7LOxqXwbHzqQDy3l2-N-99" value="experienceExige" style="shape=partialRectangle;connectable=0;fillColor=none;top=0;left=0;bottom=0;right=0;align=left;spacingLeft=6;overflow=hidden;whiteSpace=wrap;html=1;rounded=0;" vertex="1" parent="C7LOxqXwbHzqQDy3l2-N-97">
          <mxGeometry x="31.950042724609375" width="228.04995727539062" height="30" as="geometry">
            <mxRectangle width="228.04995727539062" height="30" as="alternateBounds" />
          </mxGeometry>
        </mxCell>
        <mxCell id="C7LOxqXwbHzqQDy3l2-N-100" value="" style="shape=tableRow;horizontal=0;startSize=0;swimlaneHead=0;swimlaneBody=0;fillColor=none;collapsible=0;dropTarget=0;points=[[0,0.5],[1,0.5]];portConstraint=eastwest;top=0;left=0;right=0;bottom=0;rounded=0;" vertex="1" parent="C7LOxqXwbHzqQDy3l2-N-93">
          <mxGeometry y="90" width="260" height="30" as="geometry" />
        </mxCell>
        <mxCell id="C7LOxqXwbHzqQDy3l2-N-101" value="" style="shape=partialRectangle;connectable=0;fillColor=none;top=0;left=0;bottom=0;right=0;editable=1;overflow=hidden;whiteSpace=wrap;html=1;rounded=0;" vertex="1" parent="C7LOxqXwbHzqQDy3l2-N-100">
          <mxGeometry width="31.950042724609375" height="30" as="geometry">
            <mxRectangle width="31.950042724609375" height="30" as="alternateBounds" />
          </mxGeometry>
        </mxCell>
        <mxCell id="C7LOxqXwbHzqQDy3l2-N-102" value="experienceLibelle" style="shape=partialRectangle;connectable=0;fillColor=none;top=0;left=0;bottom=0;right=0;align=left;spacingLeft=6;overflow=hidden;whiteSpace=wrap;html=1;rounded=0;" vertex="1" parent="C7LOxqXwbHzqQDy3l2-N-100">
          <mxGeometry x="31.950042724609375" width="228.04995727539062" height="30" as="geometry">
            <mxRectangle width="228.04995727539062" height="30" as="alternateBounds" />
          </mxGeometry>
        </mxCell>
        <mxCell id="C7LOxqXwbHzqQDy3l2-N-227" value="" style="shape=tableRow;horizontal=0;startSize=0;swimlaneHead=0;swimlaneBody=0;fillColor=none;collapsible=0;dropTarget=0;points=[[0,0.5],[1,0.5]];portConstraint=eastwest;top=0;left=0;right=0;bottom=0;rounded=0;" vertex="1" parent="C7LOxqXwbHzqQDy3l2-N-93">
          <mxGeometry y="120" width="260" height="30" as="geometry" />
        </mxCell>
        <mxCell id="C7LOxqXwbHzqQDy3l2-N-228" value="" style="shape=partialRectangle;connectable=0;fillColor=none;top=0;left=0;bottom=0;right=0;editable=1;overflow=hidden;whiteSpace=wrap;html=1;rounded=0;" vertex="1" parent="C7LOxqXwbHzqQDy3l2-N-227">
          <mxGeometry width="31.950042724609375" height="30" as="geometry">
            <mxRectangle width="31.950042724609375" height="30" as="alternateBounds" />
          </mxGeometry>
        </mxCell>
        <mxCell id="C7LOxqXwbHzqQDy3l2-N-229" value="&lt;span style=&quot;&quot;&gt;competence_code&lt;/span&gt;" style="shape=partialRectangle;connectable=0;fillColor=none;top=0;left=0;bottom=0;right=0;align=left;spacingLeft=6;overflow=hidden;whiteSpace=wrap;html=1;rounded=0;fontStyle=0" vertex="1" parent="C7LOxqXwbHzqQDy3l2-N-227">
          <mxGeometry x="31.950042724609375" width="228.04995727539062" height="30" as="geometry">
            <mxRectangle width="228.04995727539062" height="30" as="alternateBounds" />
          </mxGeometry>
        </mxCell>
        <mxCell id="C7LOxqXwbHzqQDy3l2-N-230" value="" style="shape=tableRow;horizontal=0;startSize=0;swimlaneHead=0;swimlaneBody=0;fillColor=none;collapsible=0;dropTarget=0;points=[[0,0.5],[1,0.5]];portConstraint=eastwest;top=0;left=0;right=0;bottom=0;rounded=0;" vertex="1" parent="C7LOxqXwbHzqQDy3l2-N-93">
          <mxGeometry y="150" width="260" height="30" as="geometry" />
        </mxCell>
        <mxCell id="C7LOxqXwbHzqQDy3l2-N-231" value="" style="shape=partialRectangle;connectable=0;fillColor=none;top=0;left=0;bottom=0;right=0;editable=1;overflow=hidden;whiteSpace=wrap;html=1;rounded=0;" vertex="1" parent="C7LOxqXwbHzqQDy3l2-N-230">
          <mxGeometry width="31.950042724609375" height="30" as="geometry">
            <mxRectangle width="31.950042724609375" height="30" as="alternateBounds" />
          </mxGeometry>
        </mxCell>
        <mxCell id="C7LOxqXwbHzqQDy3l2-N-232" value="competence_libelle" style="shape=partialRectangle;connectable=0;fillColor=none;top=0;left=0;bottom=0;right=0;align=left;spacingLeft=6;overflow=hidden;whiteSpace=wrap;html=1;rounded=0;" vertex="1" parent="C7LOxqXwbHzqQDy3l2-N-230">
          <mxGeometry x="31.950042724609375" width="228.04995727539062" height="30" as="geometry">
            <mxRectangle width="228.04995727539062" height="30" as="alternateBounds" />
          </mxGeometry>
        </mxCell>
        <mxCell id="C7LOxqXwbHzqQDy3l2-N-233" value="" style="shape=tableRow;horizontal=0;startSize=0;swimlaneHead=0;swimlaneBody=0;fillColor=none;collapsible=0;dropTarget=0;points=[[0,0.5],[1,0.5]];portConstraint=eastwest;top=0;left=0;right=0;bottom=0;rounded=0;" vertex="1" parent="C7LOxqXwbHzqQDy3l2-N-93">
          <mxGeometry y="180" width="260" height="30" as="geometry" />
        </mxCell>
        <mxCell id="C7LOxqXwbHzqQDy3l2-N-234" value="" style="shape=partialRectangle;connectable=0;fillColor=none;top=0;left=0;bottom=0;right=0;editable=1;overflow=hidden;whiteSpace=wrap;html=1;rounded=0;" vertex="1" parent="C7LOxqXwbHzqQDy3l2-N-233">
          <mxGeometry width="31.950042724609375" height="30" as="geometry">
            <mxRectangle width="31.950042724609375" height="30" as="alternateBounds" />
          </mxGeometry>
        </mxCell>
        <mxCell id="C7LOxqXwbHzqQDy3l2-N-235" value="competence_exigence" style="shape=partialRectangle;connectable=0;fillColor=none;top=0;left=0;bottom=0;right=0;align=left;spacingLeft=6;overflow=hidden;whiteSpace=wrap;html=1;rounded=0;" vertex="1" parent="C7LOxqXwbHzqQDy3l2-N-233">
          <mxGeometry x="31.950042724609375" width="228.04995727539062" height="30" as="geometry">
            <mxRectangle width="228.04995727539062" height="30" as="alternateBounds" />
          </mxGeometry>
        </mxCell>
        <mxCell id="C7LOxqXwbHzqQDy3l2-N-103" value="" style="shape=tableRow;horizontal=0;startSize=0;swimlaneHead=0;swimlaneBody=0;fillColor=none;collapsible=0;dropTarget=0;points=[[0,0.5],[1,0.5]];portConstraint=eastwest;top=0;left=0;right=0;bottom=0;rounded=0;" vertex="1" parent="C7LOxqXwbHzqQDy3l2-N-93">
          <mxGeometry y="210" width="260" height="30" as="geometry" />
        </mxCell>
        <mxCell id="C7LOxqXwbHzqQDy3l2-N-104" value="" style="shape=partialRectangle;connectable=0;fillColor=none;top=0;left=0;bottom=0;right=0;editable=1;overflow=hidden;whiteSpace=wrap;html=1;rounded=0;" vertex="1" parent="C7LOxqXwbHzqQDy3l2-N-103">
          <mxGeometry width="31.950042724609375" height="30" as="geometry">
            <mxRectangle width="31.950042724609375" height="30" as="alternateBounds" />
          </mxGeometry>
        </mxCell>
        <mxCell id="C7LOxqXwbHzqQDy3l2-N-105" value="formation_niveauLibelle" style="shape=partialRectangle;connectable=0;fillColor=none;top=0;left=0;bottom=0;right=0;align=left;spacingLeft=6;overflow=hidden;whiteSpace=wrap;html=1;rounded=0;" vertex="1" parent="C7LOxqXwbHzqQDy3l2-N-103">
          <mxGeometry x="31.950042724609375" width="228.04995727539062" height="30" as="geometry">
            <mxRectangle width="228.04995727539062" height="30" as="alternateBounds" />
          </mxGeometry>
        </mxCell>
        <mxCell id="C7LOxqXwbHzqQDy3l2-N-109" value="" style="shape=tableRow;horizontal=0;startSize=0;swimlaneHead=0;swimlaneBody=0;fillColor=none;collapsible=0;dropTarget=0;points=[[0,0.5],[1,0.5]];portConstraint=eastwest;top=0;left=0;right=0;bottom=0;rounded=0;" vertex="1" parent="C7LOxqXwbHzqQDy3l2-N-93">
          <mxGeometry y="240" width="260" height="30" as="geometry" />
        </mxCell>
        <mxCell id="C7LOxqXwbHzqQDy3l2-N-110" value="" style="shape=partialRectangle;connectable=0;fillColor=none;top=0;left=0;bottom=0;right=0;editable=1;overflow=hidden;whiteSpace=wrap;html=1;rounded=0;" vertex="1" parent="C7LOxqXwbHzqQDy3l2-N-109">
          <mxGeometry width="31.950042724609375" height="30" as="geometry">
            <mxRectangle width="31.950042724609375" height="30" as="alternateBounds" />
          </mxGeometry>
        </mxCell>
        <mxCell id="C7LOxqXwbHzqQDy3l2-N-111" value="formation_exigence" style="shape=partialRectangle;connectable=0;fillColor=none;top=0;left=0;bottom=0;right=0;align=left;spacingLeft=6;overflow=hidden;whiteSpace=wrap;html=1;rounded=0;" vertex="1" parent="C7LOxqXwbHzqQDy3l2-N-109">
          <mxGeometry x="31.950042724609375" width="228.04995727539062" height="30" as="geometry">
            <mxRectangle width="228.04995727539062" height="30" as="alternateBounds" />
          </mxGeometry>
        </mxCell>
        <mxCell id="C7LOxqXwbHzqQDy3l2-N-112" value="" style="shape=tableRow;horizontal=0;startSize=0;swimlaneHead=0;swimlaneBody=0;fillColor=none;collapsible=0;dropTarget=0;points=[[0,0.5],[1,0.5]];portConstraint=eastwest;top=0;left=0;right=0;bottom=0;rounded=0;" vertex="1" parent="C7LOxqXwbHzqQDy3l2-N-93">
          <mxGeometry y="270" width="260" height="30" as="geometry" />
        </mxCell>
        <mxCell id="C7LOxqXwbHzqQDy3l2-N-113" value="" style="shape=partialRectangle;connectable=0;fillColor=none;top=0;left=0;bottom=0;right=0;editable=1;overflow=hidden;whiteSpace=wrap;html=1;rounded=0;" vertex="1" parent="C7LOxqXwbHzqQDy3l2-N-112">
          <mxGeometry width="31.950042724609375" height="30" as="geometry">
            <mxRectangle width="31.950042724609375" height="30" as="alternateBounds" />
          </mxGeometry>
        </mxCell>
        <mxCell id="C7LOxqXwbHzqQDy3l2-N-114" value="langues" style="shape=partialRectangle;connectable=0;fillColor=none;top=0;left=0;bottom=0;right=0;align=left;spacingLeft=6;overflow=hidden;whiteSpace=wrap;html=1;rounded=0;" vertex="1" parent="C7LOxqXwbHzqQDy3l2-N-112">
          <mxGeometry x="31.950042724609375" width="228.04995727539062" height="30" as="geometry">
            <mxRectangle width="228.04995727539062" height="30" as="alternateBounds" />
          </mxGeometry>
        </mxCell>
        <mxCell id="C7LOxqXwbHzqQDy3l2-N-190" value="" style="shape=tableRow;horizontal=0;startSize=0;swimlaneHead=0;swimlaneBody=0;fillColor=none;collapsible=0;dropTarget=0;points=[[0,0.5],[1,0.5]];portConstraint=eastwest;top=0;left=0;right=0;bottom=0;rounded=0;" vertex="1" parent="C7LOxqXwbHzqQDy3l2-N-93">
          <mxGeometry y="300" width="260" height="30" as="geometry" />
        </mxCell>
        <mxCell id="C7LOxqXwbHzqQDy3l2-N-191" value="" style="shape=partialRectangle;connectable=0;fillColor=none;top=0;left=0;bottom=0;right=0;editable=1;overflow=hidden;whiteSpace=wrap;html=1;rounded=0;" vertex="1" parent="C7LOxqXwbHzqQDy3l2-N-190">
          <mxGeometry width="31.950042724609375" height="30" as="geometry">
            <mxRectangle width="31.950042724609375" height="30" as="alternateBounds" />
          </mxGeometry>
        </mxCell>
        <mxCell id="C7LOxqXwbHzqQDy3l2-N-192" value="qualites_professionnelles_libelle" style="shape=partialRectangle;connectable=0;fillColor=none;top=0;left=0;bottom=0;right=0;align=left;spacingLeft=6;overflow=hidden;whiteSpace=wrap;html=1;rounded=0;" vertex="1" parent="C7LOxqXwbHzqQDy3l2-N-190">
          <mxGeometry x="31.950042724609375" width="228.04995727539062" height="30" as="geometry">
            <mxRectangle width="228.04995727539062" height="30" as="alternateBounds" />
          </mxGeometry>
        </mxCell>
        <mxCell id="C7LOxqXwbHzqQDy3l2-N-193" value="" style="shape=tableRow;horizontal=0;startSize=0;swimlaneHead=0;swimlaneBody=0;fillColor=none;collapsible=0;dropTarget=0;points=[[0,0.5],[1,0.5]];portConstraint=eastwest;top=0;left=0;right=0;bottom=0;rounded=0;" vertex="1" parent="C7LOxqXwbHzqQDy3l2-N-93">
          <mxGeometry y="330" width="260" height="30" as="geometry" />
        </mxCell>
        <mxCell id="C7LOxqXwbHzqQDy3l2-N-194" value="" style="shape=partialRectangle;connectable=0;fillColor=none;top=0;left=0;bottom=0;right=0;editable=1;overflow=hidden;whiteSpace=wrap;html=1;rounded=0;" vertex="1" parent="C7LOxqXwbHzqQDy3l2-N-193">
          <mxGeometry width="31.950042724609375" height="30" as="geometry">
            <mxRectangle width="31.950042724609375" height="30" as="alternateBounds" />
          </mxGeometry>
        </mxCell>
        <mxCell id="C7LOxqXwbHzqQDy3l2-N-195" value="qualites_professionnelles_description" style="shape=partialRectangle;connectable=0;fillColor=none;top=0;left=0;bottom=0;right=0;align=left;spacingLeft=6;overflow=hidden;whiteSpace=wrap;html=1;rounded=0;" vertex="1" parent="C7LOxqXwbHzqQDy3l2-N-193">
          <mxGeometry x="31.950042724609375" width="228.04995727539062" height="30" as="geometry">
            <mxRectangle width="228.04995727539062" height="30" as="alternateBounds" />
          </mxGeometry>
        </mxCell>
        <mxCell id="C7LOxqXwbHzqQDy3l2-N-205" value="" style="shape=tableRow;horizontal=0;startSize=0;swimlaneHead=0;swimlaneBody=0;fillColor=none;collapsible=0;dropTarget=0;points=[[0,0.5],[1,0.5]];portConstraint=eastwest;top=0;left=0;right=0;bottom=0;rounded=0;" vertex="1" parent="C7LOxqXwbHzqQDy3l2-N-93">
          <mxGeometry y="360" width="260" height="30" as="geometry" />
        </mxCell>
        <mxCell id="C7LOxqXwbHzqQDy3l2-N-206" value="" style="shape=partialRectangle;connectable=0;fillColor=none;top=0;left=0;bottom=0;right=0;editable=1;overflow=hidden;whiteSpace=wrap;html=1;rounded=0;" vertex="1" parent="C7LOxqXwbHzqQDy3l2-N-205">
          <mxGeometry width="31.950042724609375" height="30" as="geometry">
            <mxRectangle width="31.950042724609375" height="30" as="alternateBounds" />
          </mxGeometry>
        </mxCell>
        <mxCell id="C7LOxqXwbHzqQDy3l2-N-207" value="permis" style="shape=partialRectangle;connectable=0;fillColor=none;top=0;left=0;bottom=0;right=0;align=left;spacingLeft=6;overflow=hidden;whiteSpace=wrap;html=1;rounded=0;" vertex="1" parent="C7LOxqXwbHzqQDy3l2-N-205">
          <mxGeometry x="31.950042724609375" width="228.04995727539062" height="30" as="geometry">
            <mxRectangle width="228.04995727539062" height="30" as="alternateBounds" />
          </mxGeometry>
        </mxCell>
        <mxCell id="C7LOxqXwbHzqQDy3l2-N-208" value="" style="shape=tableRow;horizontal=0;startSize=0;swimlaneHead=0;swimlaneBody=0;fillColor=none;collapsible=0;dropTarget=0;points=[[0,0.5],[1,0.5]];portConstraint=eastwest;top=0;left=0;right=0;bottom=0;rounded=0;" vertex="1" parent="C7LOxqXwbHzqQDy3l2-N-93">
          <mxGeometry y="390" width="260" height="30" as="geometry" />
        </mxCell>
        <mxCell id="C7LOxqXwbHzqQDy3l2-N-209" value="" style="shape=partialRectangle;connectable=0;fillColor=none;top=0;left=0;bottom=0;right=0;editable=1;overflow=hidden;whiteSpace=wrap;html=1;rounded=0;" vertex="1" parent="C7LOxqXwbHzqQDy3l2-N-208">
          <mxGeometry width="31.950042724609375" height="30" as="geometry">
            <mxRectangle width="31.950042724609375" height="30" as="alternateBounds" />
          </mxGeometry>
        </mxCell>
        <mxCell id="C7LOxqXwbHzqQDy3l2-N-210" value="experience_commentaire" style="shape=partialRectangle;connectable=0;fillColor=none;top=0;left=0;bottom=0;right=0;align=left;spacingLeft=6;overflow=hidden;whiteSpace=wrap;html=1;rounded=0;" vertex="1" parent="C7LOxqXwbHzqQDy3l2-N-208">
          <mxGeometry x="31.950042724609375" width="228.04995727539062" height="30" as="geometry">
            <mxRectangle width="228.04995727539062" height="30" as="alternateBounds" />
          </mxGeometry>
        </mxCell>
        <mxCell id="C7LOxqXwbHzqQDy3l2-N-106" value="" style="shape=tableRow;horizontal=0;startSize=0;swimlaneHead=0;swimlaneBody=0;fillColor=none;collapsible=0;dropTarget=0;points=[[0,0.5],[1,0.5]];portConstraint=eastwest;top=0;left=0;right=0;bottom=0;rounded=0;" vertex="1" parent="C7LOxqXwbHzqQDy3l2-N-93">
          <mxGeometry y="420" width="260" height="30" as="geometry" />
        </mxCell>
        <mxCell id="C7LOxqXwbHzqQDy3l2-N-107" value="FK" style="shape=partialRectangle;connectable=0;fillColor=none;top=0;left=0;bottom=0;right=0;editable=1;overflow=hidden;whiteSpace=wrap;html=1;rounded=0;" vertex="1" parent="C7LOxqXwbHzqQDy3l2-N-106">
          <mxGeometry width="31.950042724609375" height="30" as="geometry">
            <mxRectangle width="31.950042724609375" height="30" as="alternateBounds" />
          </mxGeometry>
        </mxCell>
        <mxCell id="C7LOxqXwbHzqQDy3l2-N-108" value="id_offre" style="shape=partialRectangle;connectable=0;fillColor=none;top=0;left=0;bottom=0;right=0;align=left;spacingLeft=6;overflow=hidden;whiteSpace=wrap;html=1;rounded=0;" vertex="1" parent="C7LOxqXwbHzqQDy3l2-N-106">
          <mxGeometry x="31.950042724609375" width="228.04995727539062" height="30" as="geometry">
            <mxRectangle width="228.04995727539062" height="30" as="alternateBounds" />
          </mxGeometry>
        </mxCell>
        <mxCell id="C7LOxqXwbHzqQDy3l2-N-159" value="secteurs" style="shape=table;startSize=37;container=1;collapsible=1;childLayout=tableLayout;fixedRows=1;rowLines=0;fontStyle=1;align=center;resizeLast=1;html=1;fillColor=#ffe6cc;strokeColor=#d79b00;rounded=0;swimlaneLine=1;shadow=0;" vertex="1" parent="1">
          <mxGeometry x="-2540" y="550" width="216" height="157" as="geometry" />
        </mxCell>
        <mxCell id="C7LOxqXwbHzqQDy3l2-N-160" value="" style="shape=tableRow;horizontal=0;startSize=0;swimlaneHead=0;swimlaneBody=0;fillColor=none;collapsible=0;dropTarget=0;points=[[0,0.5],[1,0.5]];portConstraint=eastwest;top=0;left=0;right=0;bottom=1;rounded=0;" vertex="1" parent="C7LOxqXwbHzqQDy3l2-N-159">
          <mxGeometry y="37" width="216" height="30" as="geometry" />
        </mxCell>
        <mxCell id="C7LOxqXwbHzqQDy3l2-N-161" value="PK" style="shape=partialRectangle;connectable=0;fillColor=none;top=0;left=0;bottom=0;right=0;fontStyle=1;overflow=hidden;whiteSpace=wrap;html=1;rounded=0;" vertex="1" parent="C7LOxqXwbHzqQDy3l2-N-160">
          <mxGeometry width="30" height="30" as="geometry">
            <mxRectangle width="30" height="30" as="alternateBounds" />
          </mxGeometry>
        </mxCell>
        <mxCell id="C7LOxqXwbHzqQDy3l2-N-162" value="codeNAF" style="shape=partialRectangle;connectable=0;fillColor=none;top=0;left=0;bottom=0;right=0;align=left;spacingLeft=6;fontStyle=5;overflow=hidden;whiteSpace=wrap;html=1;rounded=0;" vertex="1" parent="C7LOxqXwbHzqQDy3l2-N-160">
          <mxGeometry x="30" width="186" height="30" as="geometry">
            <mxRectangle width="186" height="30" as="alternateBounds" />
          </mxGeometry>
        </mxCell>
        <mxCell id="C7LOxqXwbHzqQDy3l2-N-163" value="" style="shape=tableRow;horizontal=0;startSize=0;swimlaneHead=0;swimlaneBody=0;fillColor=none;collapsible=0;dropTarget=0;points=[[0,0.5],[1,0.5]];portConstraint=eastwest;top=0;left=0;right=0;bottom=0;rounded=0;" vertex="1" parent="C7LOxqXwbHzqQDy3l2-N-159">
          <mxGeometry y="67" width="216" height="30" as="geometry" />
        </mxCell>
        <mxCell id="C7LOxqXwbHzqQDy3l2-N-164" value="" style="shape=partialRectangle;connectable=0;fillColor=none;top=0;left=0;bottom=0;right=0;editable=1;overflow=hidden;whiteSpace=wrap;html=1;rounded=0;" vertex="1" parent="C7LOxqXwbHzqQDy3l2-N-163">
          <mxGeometry width="30" height="30" as="geometry">
            <mxRectangle width="30" height="30" as="alternateBounds" />
          </mxGeometry>
        </mxCell>
        <mxCell id="C7LOxqXwbHzqQDy3l2-N-165" value="secteurActivite" style="shape=partialRectangle;connectable=0;fillColor=none;top=0;left=0;bottom=0;right=0;align=left;spacingLeft=6;overflow=hidden;whiteSpace=wrap;html=1;rounded=0;" vertex="1" parent="C7LOxqXwbHzqQDy3l2-N-163">
          <mxGeometry x="30" width="186" height="30" as="geometry">
            <mxRectangle width="186" height="30" as="alternateBounds" />
          </mxGeometry>
        </mxCell>
        <mxCell id="C7LOxqXwbHzqQDy3l2-N-166" value="" style="shape=tableRow;horizontal=0;startSize=0;swimlaneHead=0;swimlaneBody=0;fillColor=none;collapsible=0;dropTarget=0;points=[[0,0.5],[1,0.5]];portConstraint=eastwest;top=0;left=0;right=0;bottom=0;rounded=0;" vertex="1" parent="C7LOxqXwbHzqQDy3l2-N-159">
          <mxGeometry y="97" width="216" height="30" as="geometry" />
        </mxCell>
        <mxCell id="C7LOxqXwbHzqQDy3l2-N-167" value="" style="shape=partialRectangle;connectable=0;fillColor=none;top=0;left=0;bottom=0;right=0;editable=1;overflow=hidden;whiteSpace=wrap;html=1;rounded=0;" vertex="1" parent="C7LOxqXwbHzqQDy3l2-N-166">
          <mxGeometry width="30" height="30" as="geometry">
            <mxRectangle width="30" height="30" as="alternateBounds" />
          </mxGeometry>
        </mxCell>
        <mxCell id="C7LOxqXwbHzqQDy3l2-N-168" value="secteurActiviteLibelle" style="shape=partialRectangle;connectable=0;fillColor=none;top=0;left=0;bottom=0;right=0;align=left;spacingLeft=6;overflow=hidden;whiteSpace=wrap;html=1;rounded=0;" vertex="1" parent="C7LOxqXwbHzqQDy3l2-N-166">
          <mxGeometry x="30" width="186" height="30" as="geometry">
            <mxRectangle width="186" height="30" as="alternateBounds" />
          </mxGeometry>
        </mxCell>
        <mxCell id="C7LOxqXwbHzqQDy3l2-N-187" value="" style="shape=tableRow;horizontal=0;startSize=0;swimlaneHead=0;swimlaneBody=0;fillColor=none;collapsible=0;dropTarget=0;points=[[0,0.5],[1,0.5]];portConstraint=eastwest;top=0;left=0;right=0;bottom=0;rounded=0;" vertex="1" parent="C7LOxqXwbHzqQDy3l2-N-159">
          <mxGeometry y="127" width="216" height="30" as="geometry" />
        </mxCell>
        <mxCell id="C7LOxqXwbHzqQDy3l2-N-188" value="FK" style="shape=partialRectangle;connectable=0;fillColor=none;top=0;left=0;bottom=0;right=0;editable=1;overflow=hidden;whiteSpace=wrap;html=1;rounded=0;" vertex="1" parent="C7LOxqXwbHzqQDy3l2-N-187">
          <mxGeometry width="30" height="30" as="geometry">
            <mxRectangle width="30" height="30" as="alternateBounds" />
          </mxGeometry>
        </mxCell>
        <mxCell id="C7LOxqXwbHzqQDy3l2-N-189" value="id_offre" style="shape=partialRectangle;connectable=0;fillColor=none;top=0;left=0;bottom=0;right=0;align=left;spacingLeft=6;overflow=hidden;whiteSpace=wrap;html=1;rounded=0;" vertex="1" parent="C7LOxqXwbHzqQDy3l2-N-187">
          <mxGeometry x="30" width="186" height="30" as="geometry">
            <mxRectangle width="186" height="30" as="alternateBounds" />
          </mxGeometry>
        </mxCell>
      </root>
    </mxGraphModel>
  </diagram>
</mxfile>
